<svg xmlns="http://www.w3.org/2000/svg" height="512px" viewBox="0 0 55 60" width="512px" class=""><g><g id="Page-1" fill="none" fill-rule="evenodd"><g id="021---Brain-Profile" fill-rule="nonzero" transform="translate(0 -1)"><path id="Shape" d="m47.23 57.13c.2993503.6196415.2591127 1.3496617-.1065246 1.9326501s-1.0053141.9370537-1.6934754.9373499h-20.17c-.858799-.0035163-1.6194833-.5549118-1.89-1.37-.66-1.9-2.11-5.24-4.51-6.33-2.8476515 1.0311337-5.7484703 1.909057-8.69 2.63-1.43386925.3058116-2.85257563-.5781176-3.21-2-.85-2.46.33-3.13-.05-4.6-.26-1.02-1.22-1.27-1.98-1.81-.61-.43.49-1.84.49-1.84s-1.17-.87-1.59-1.25c-.44-.37.17-.99.73-2.16.22857894-.5041746.29159227-1.0677938.18-1.61-.2-1.08-1.82-1.48-2.62-2.08-1.67-1.24-1.76-1.54 2.6-6.25.91311456-1.0615165 1.49081641-2.3700459 1.66-3.76.08-.47.56-.98.55-1.55-.02-1.43-2.09-2.02-2.28-3.41-.15-1.08 1.24-3.05 1.69-4.98.24613795-1.1813929.56338182-2.3468467.95-3.49.83024267-2.3020922 2.11966974-4.4114452 3.79-6.2 2.45-2.6 5.85-3.72 9.29-4.52 12.58-2.9 18.89-1.31 26.06 4.33 2.7040838 2.01294837 4.6773227 4.8534293 5.62 8.09.7219224 2.6718051 1.0586539 5.4330027 1 8.2-.1 7.34-4.77 9.91-6.85 14.66-1.2724507 2.9274818-1.7485282 6.1392796-1.38 9.31.2766674 3.1445372 1.0883353 6.2187294 2.4 9.09z" fill="#e8edfc" data-original="#E8EDFC" class="" style="fill:#1A233A00" data-old_color="#e8edfc"/><path id="Shape" d="m47.22 57.1c-1.3116647-2.8712706-2.1233326-5.9454628-2.4-9.09-.3685282-3.1707204.1075493-6.3825182 1.38-9.31 2.08-4.75 6.75-7.32 6.85-14.66.0586539-2.7669973-.2780776-5.5281949-1-8.2-.9426773-3.2365707-2.9159162-6.07705163-5.62-8.09-5.189-4.082-9.94-6.03-16.93-5.702 5.425.3 9.518 2.23 13.931 5.7 2.7040838 2.01294837 4.6773227 4.8534293 5.62 8.09.7219224 2.6718051 1.0586539 5.4330027 1 8.2-.1 7.34-4.77 9.91-6.85 14.66-1.2724507 2.9274818-1.7485282 6.1392796-1.38 9.31.2766674 3.1445372 1.0883353 6.2187294 2.4 9.09l.01.03c.3003632.6199788.2605065 1.3508999-.1054894 1.9345425-.365996.5836426-1.0066045.9378387-1.6955106.9374575h3c.6881613-.0002962 1.3278381-.3543615 1.6934754-.9373499s.4058749-1.3130086.1065246-1.9326501z" fill="#cad9fc" data-original="#CAD9FC" class="" data-old_color="#cad9fc" style="fill:#D0DBF8"/><path id="Shape" d="m47.06 22.88c-.000244 1.3123537-.4885652 2.5777114-1.37 3.55h-.01c-.4055497 2.2171671-1.7961375 4.130145-3.78 5.2.5831918.8081003 1.0291716 1.7068172 1.32 2.66.0672906.2066257.1010516.4226958.1.64-.0027109.8306107-.4974831 1.5806226-1.26 1.91-.1218195.0517099-.2493951.0886397-.38.11v.01c-.7756376.1524868-1.5720502-.1360684-2.07-.75-.659391-.7651575-1.5177695-1.3327949-2.48-1.64-.17-.06-.33-.11-.49-.17-2.75-.99-3.6-2.03-3.8-3.74h-.06c-1.0743441.0013295-2.1394124-.1987948-3.14-.59-1.2305134 1.4286827-3.1308762 2.0905931-4.9826893 1.7355074s-3.3725454-1.672992-3.9873107-3.4555074h-.01c-2.1929718.8083596-4.6428383.4911027-6.5575588-.8492017-1.9147206-1.3403044-3.0513592-3.533601-3.0424412-5.8707983-.0048394-1.5354014.4900773-3.0306818 1.41-4.26-.1122369-.3283723-.1696709-.6729764-.17-1.02-.0030106-1.4856625 1.0435767-2.7666855 2.5-3.06-.01-.12-.02-.24-.02-.37-.000557-2.2275584 1.802447-4.03503646 4.03-4.04.6064408-.00400844 1.2055213.13292424 1.75.4 1.0645952-1.79239317 2.9952852-2.89075816 5.08-2.89 1.4330597-.00361382 2.817475.5195457 3.89 1.47.6130013-.98880464 1.7280309-1.55114416 2.8875588-1.45627371 1.1595278.09487046 2.1683209.83097731 2.6124412 1.90627371.2822318-.03189603.5659751-.04858682.85-.05 3.8778796.00265669 7.107234 2.9755752 7.43 6.84h.02c1.1048357.0073527 2.1234469.598295 2.6782364 1.5537659.5547896.9554709.5630669 2.1330587.0217636 3.0962341.6707879.9055283 1.0319652 2.0030865 1.03 3.13z" fill="#cad9fc" data-original="#CAD9FC" class="" data-old_color="#cad9fc" style="fill:#D0DBF8"/><path id="Shape" d="m46.03 19.75c.5413033-.9631754.533026-2.1407632-.0217636-3.0962341-.5547895-.9554709-1.5734007-1.5464132-2.6782364-1.5537659h-.02c-.322766-3.8644248-3.5521204-6.83734331-7.43-6.84-.2840249.00141318-.5677682.01810397-.85.05-.4808683-1.16108704-1.6132758-1.91865586-2.87-1.92-.5261193.00181497-1.0428351.13960585-1.5.4.614312.33855548 1.0968618.87393915 1.37 1.52.2822318-.03189603.5659751-.04858682.85-.05 3.8778796.00265669 7.107234 2.9755752 7.43 6.84h.02c1.1048357.0073527 2.1234469.598295 2.6782364 1.5537659.5547896.9554709.5630669 2.1330587.0217636 3.0962341 1.4920958 2.0234559 1.3498331 4.8184986-.34 6.68h-.01c-.4055497 2.2171671-1.7961375 4.130145-3.78 5.2.5831918.8081003 1.0291716 1.7068172 1.32 2.66.0672906.2066257.1010516.4226958.1.64-.0082487.5226745-.2140368 1.0228538-.576 1.4.4951459.5271145 1.2258485.7637625 1.936.627v-.01c.1306049-.0213603.2581805-.0582901.38-.11.7625169-.3293774 1.2572891-1.0793893 1.26-1.91.0010516-.2173042-.0327094-.4333743-.1-.64-.2908284-.9531828-.7368082-1.8518997-1.32-2.66 1.9838625-1.069855 3.3744503-2.9828329 3.78-5.2h.01c1.6898331-1.8615014 1.8320958-4.6565441.34-6.68z" fill="#a4c2f7" data-original="#A4C2F7" class="active-path" data-old_color="#a4c2f7" style="fill:#9AB4E2"/><path id="Shape" d="m43.8 60h-4.54c-2.1-5.69-3.99-11.8-2.87-18.09.42-2.38 1.31-4.92.25-7.51.16.06.32.11.49.17.9622305.3072051 1.820609.8748425 2.48 1.64.4979498.6139316 1.2943624.9024868 2.07.75-.094658 1.6698229-.3457581 3.3270837-.75 4.95-1.12 6.29.77 12.4 2.87 18.09z" fill="#cad9fc" data-original="#CAD9FC" class="" data-old_color="#cad9fc" style="fill:#D0DBF8"/><path id="Shape" d="m3.83 43.43c.42.38 1.59 1.25 1.59 1.25s-1.1 1.41-.49 1.84c.76.54 1.72.79 1.98 1.81.38 1.47-.8 2.14.05 4.6.35742437 1.4218824 1.77613075 2.3058116 3.21 2 .35-.074.738-.168 1.142-.271-.6441006-.3947979-1.1241528-1.0087108-1.352-1.729-.85-2.46.33-3.13-.05-4.6-.26-1.02-1.22-1.27-1.98-1.81-.61-.43.49-1.84.49-1.84s-1.17-.87-1.59-1.25c-.712-.6 1.314-1.861.91-3.77-.2-1.08-1.82-1.48-2.62-2.08-1.67-1.24-1.76-1.54 2.6-6.25.91311456-1.0615165 1.49081641-2.3700459 1.66-3.76.08-.47.56-.98.55-1.55-.02-1.43-2.09-2.02-2.28-3.41-.15-1.08 1.24-3.05 1.69-4.98.24613795-1.1813929.56338182-2.3468467.95-3.49.8302427-2.3020922 2.1196697-4.4114452 3.79-6.2 2.45-2.6 5.85-3.72 9.29-4.52 2.9208941-.71736266 5.8988875-1.17811511 8.9-1.377-4.0115146-.09912508-8.01713.36438185-11.9 1.377-3.44.8-6.84 1.92-9.29 4.52-1.67033026 1.7885548-2.95975733 3.8979078-3.79 6.2-.38661818 1.1431533-.70386205 2.3086071-.95 3.49-.45 1.93-1.84 3.9-1.69 4.98.19 1.39 2.26 1.98 2.28 3.41.01.57-.47 1.08-.55 1.55-.16918359 1.3899541-.74688544 2.6984835-1.66 3.76-4.36 4.71-4.27 5.01-2.6 6.25.8.6 2.42 1 2.62 2.08.404 1.909-1.622 3.171-.91 3.77z" fill="#fff" data-original="#FFF" class="" data-old_color="#fff" style="fill:#1A233A00"/><path id="Shape" d="m26.37 58.63c-.66-1.9-2.11-5.24-4.51-6.33-.624.218-1.287.443-1.961.668 1.783 1.436 2.913 4.056 3.471 5.662.2705167.8150882 1.031201 1.3664837 1.89 1.37h3c-.858799-.0035163-1.6194833-.5549118-1.89-1.37z" fill="#fff" data-original="#FFF" class="" data-old_color="#fff" style="fill:#1A233A00"/><path id="Shape" d="m10.882 6.725 1.368 1.458c-1.7945832 1.77288711-3.168645 3.925732-4.021 6.3l-1.877-.693c.95908886-2.6658934 2.5075702-5.08090904 4.53-7.065z" fill="#fff" data-original="#FFF" class="" data-old_color="#fff" style="fill:#1A233A00"/><g fill="#428dff"><path id="Shape" d="m9.067 11.543c-.55228475.0027614-1.00223858-.4427153-1.005-.995-.00276142-.55228475.44271525-1.00223858.995-1.005h.01c.55228475 0 1 .44771525 1 1 0 .5522847-.44771525 1-1 1z" data-original="#428DFF" class="" data-old_color="#428DFF" style="fill:#6C8BC2"/><path id="Shape" d="m5.4 27.4c-.1362013 1.1994107-.62634728 2.3311327-1.408 3.251-3.142 3.389-4.039 4.556-3.929 5.764.17100613.8398568.70476403 1.5610524 1.458 1.97.32986222.228362.67804944.4290463 1.041.6.43.22 1.15.589 1.2.853.06552896.3384272.02718405.6887603-.11 1.005-.149.313-.3.583-.434.819-.389.69-.978 1.734-.055 2.512.215.191.585.482.922.74-.25025843.4397629-.36245216.9446347-.322 1.449.05336063.3910474.26574799.7427348.587.972.224.159.461.3.7.432.586.336.815.492.894.8.07529713.378294.04626028.7699459-.084 1.133-.33248631 1.1748335-.27636383 2.4256634.16 3.566.4429491 1.5918446 1.87991484 2.70293 3.532 2.731.27522302-.0005763.5496605-.0293939.819-.086 2.8410425-.6869104 5.6428098-1.5271402 8.393-2.517 1.387.816 2.706 2.805 3.657 5.568.4159385 1.2162122 1.5576341 2.0346348 2.843 2.038h20.166c1.0382387-.0007248 2.0022976-.5382207 2.5487514-1.4210164.5464538-.8827958.5976113-1.9853811.1352486-2.9149836-1.248833-2.777965-2.02614-5.7445739-2.3-8.778-.3548274-2.990845.0939069-6.0222181 1.3-8.782.7191827-1.4927273 1.6058864-2.8987717 2.643-4.191 1.978-2.674 4.221-5.7 4.293-10.856.059752-2.8666138-.2914826-5.727004-1.043-8.494-1.007256-3.4354364-3.0995558-6.45250199-5.964-8.6-7.879-6.2-14.669-7.337-26.9-4.515-3.2.741-6.629 1.815-9.261 4.277-.2064689.1823655-.3259588.44370418-.3288183.71916452-.0028594.27546034.1111796.53922319.3138183.72583548.3899426.35675092.9859153.36278391 1.383.014 2.188-2.061 5.236-3.075 8.341-3.786 13.047-3.011 18.728-.968 25.22 4.138 2.5392323 1.8786596 4.3916971 4.5387892 5.273 7.572.6990907 2.5802541 1.0250663 5.2473267.968 7.92-.063 4.509-1.927 7.028-3.9 9.7-1.1278574 1.413146-2.0901296 2.9508353-2.868 4.583-1.3495672 3.0857211-1.8518237 6.4755214-1.455 9.82.2987412 3.2644765 1.1438377 6.4555608 2.5 9.44.1468124.3091207.1253584.6718491-.0568695.9615083s-.4999211.4660202-.8421305.4674917h-.93c-1.861-5.114-3.639-10.994-2.584-16.917.074-.425.165-.855.256-1.29.2396456-1.0330482.4011027-2.0826867.483-3.14 1.0229541-.5248978 1.6670166-1.5772396 1.669-2.727.0007604-.3214733-.0505714-.6409461-.152-.946-.2237503-.7068259-.5196421-1.3887508-.883-2.035 1.6996798-1.2225595 2.8838013-3.0336737 3.322-5.081 1.7052742-2.0295981 1.9280795-4.9200341.554-7.187.4329736-1.1178308.35362-2.3693527-.2170722-3.4235454s-1.5752333-1.8048599-2.7479278-2.0534546c-.7484567-4.0078593-4.2349279-6.9213614-8.312-6.946-.1 0-.189.013-.285.016-.6520293-1.02427507-1.7275116-1.70374832-2.9325367-1.85273183-1.2050251-.14898352-2.4136075.24809894-3.2954633 1.08273183-1.1111888-.7223901-2.4076383-1.10788672-3.733-1.11-2.1360548.00829116-4.1492879.99978447-5.458 2.688-1.4535783-.42379534-3.0209998-.16356549-4.2596489.70720464-1.2386491.87077014-2.0140904 2.25757246-2.1073511 3.76879536-1.8356677.7467503-2.859211 2.7142233-2.417 4.646-.872137 1.3153195-1.3387792 2.8578118-1.342 4.436-.0121347 2.4982719 1.1272771 4.8628483 3.0888056 6.4100766 1.9615285 1.5472284 4.5264524 2.1045843 6.9531944 1.5109234.9104768 1.7274146 2.5743229 2.9315304 4.4997712 3.2564584s3.892299-.2664916 5.3192288-1.5994584c.6787871.2125443 1.3790793.3490476 2.088.407.431 1.6 1.576 2.647 3.832 3.542.4100676 1.7260784.3510277 3.5304207-.171 5.226-.095.454-.189.9-.267 1.346-1.091 6.13.573 12.065 2.428 17.265h-12.565c-.4324283-.0040645-.8146936-.2819297-.952-.692-.650973-2.1230525-1.7732518-4.0715719-3.283-5.7l.747-.262c.739-.26 1.3-.456 1.576-.544 4.277-1.346 6.417-3.294 6.358-5.792.0008877-.2673862-.1081879-.5233787-.3016515-.7079539s-.4542995-.2814993-.7213485-.2680461c-.5519545.013101-.988854.4710397-.976 1.023.024 1.031-.817 2.534-4.961 3.838-.293.092-.871.295-1.637.564-.717.252-1.6.564-2.575.9-2.8074737 1.0188138-5.6679826 1.8850783-8.569 2.595-.93372293.1756563-1.83982378-.4163531-2.054-1.342-.31267287-.7811699-.34796989-1.6459468-.1-2.45.20666185-.6727251.2328708-1.3879536.076-2.074-.28592273-.9177549-.95780315-1.6652219-1.84-2.047l-.213-.123c.10645119-.219357.23476799-.4274112.383-.621.16603676-.21239.23928586-.4828217.20313822-.7499754-.03614764-.2671536-.17862953-.5083955-.39513822-.6690246-.24-.178-.81-.607-1.22-.935.051-.094.109-.2.161-.291.153-.271.329-.584.5-.942.31962519-.698978.41364466-1.4801435.269-2.235-.232-1.227-1.4-1.825-2.256-2.262-.26187633-.1230928-.51423856-.2654853-.755-.426-.23394416-.1633988-.45493325-.3446031-.661-.542.017-.578 2.217-2.951 3.4-4.226 1.05130103-1.2037766 1.71794724-2.6948489 1.914-4.281.0424573-.1152125.09325865-.227176.152-.335.24996985-.4227681.39054583-.9012076.409-1.392-.10208761-1.0112603-.63946566-1.9279426-1.472-2.511-.4-.37-.784-.72-.827-1.028.12145117-.6667198.34686443-1.3102274.668-1.907.42001861-.868796.75653105-1.775538 1.005-2.708l.08-.349c.21395743-1.0264434.49217176-2.0384356.833-3.03.13755444-.3384006.07964685-.7248792-.15104809-1.0081036s-.59746605-.4181242-.95669792-.3518772c-.35923188.066247-.65375888.3230989-.76825399.6699808-.36984837 1.0699008-.67046944 2.1624914-.9 3.271l-.08.346c-.22171004.806797-.517293 1.5914476-.883 2.344-.5328696.9104401-.81671159 1.9451011-.823 3 .20262587.8929078.7189068 1.6834741 1.455 2.228.49.449.811.765.814 1.052-.04264942.1626622-.10724238.3187619-.192.464-.16120766.2825708-.27727415.5885949-.344.907zm28.7 4.148c.5189719-.064577 1.0317177-.1719426 1.533-.321.3415459-.1048574.6012066-.3839623.6811703-.7321785.0799637-.3482161-.0319178-.7126413-.2935-.956s-.6331244-.328679-.9746703-.2238215c-.561214.1719239-1.1403646.2786272-1.726.318-1.1284076.0900877-2.2624006-.0810036-3.314-.5-.3961892-.1387262-.8369276-.0291308-1.122.279-1.4582009 1.6633923-3.9435454 1.9419218-5.7337766.6425772s-2.2957386-3.7486257-1.1662234-5.6505772c.2841505-.4735842.1305842-1.0878495-.343-1.372s-1.0878495-.1305842-1.372.343c-.2387546.4056206-.4306519.837054-.572 1.286-.7865594-.0431601-1.4073777-.6844545-1.425-1.472v-.025c-.0005173-.2638693-.1064589-.5165907-.2942597-.7019501-.1878009-.1853594-.4418868-.2879853-.7057403-.2850499-.5546788.005491-1.0011256.4572951-1 1.012.0033133 1.771897 1.3385459 3.2578816 3.1 3.45.0035931.3352279.0340236.6696299.091 1-2.2324706.481588-4.5472149-.321437-6.0017999-2.0821286-1.4545849-1.7606915-1.8063977-4.1853808-.9122001-6.2868714.224282.2261283.4743252.4251561.745.593.473308.2847028 1.0877972.131808 1.3725-.3415s.131808-1.0877972-.3415-1.3725c-.4242889-.2561159-.744997-.6532842-.906-1.122-.0774511-.2207665-.1170089-.4530416-.117-.687-.0005662-1.1619809.9380347-2.1059453 2.1-2.112.6635536-.0017937 1.2881032.3132676 1.681.848.329714.4432085.9562915.535214 1.3995.2055s.535214-.9562915.2055-1.3995c-.6791747-.9078904-1.7086772-1.4885052-2.837-1.6.2981423-1.4004791 1.5331428-2.40305795 2.965-2.407.1220636.00613627.2436298.01982917.364.041-.075.206-.154.411-.209.624-.1146013.525141.2064181 1.0469386.7268254 1.1814108s1.0540258-.1664888 1.2081746-.6814108c.1143783-.4351794.2883579-.8524612.517-1.24.8864895-1.48751502 2.4873822-2.40198557 4.219-2.41.9415765.00419093 1.8616086.28214624 2.648.8-.1494302.42084817-.2284893.86344408-.234 1.31 0 .3572656.1905989.6873926.5.8660255.3094011.1786328.6905989.1786328 1 0 .3094011-.1786329.5-.5087599.5-.8660255 0-.75150819.4009248-1.44593041 1.05175-1.82168451s1.4526748-.3757541 2.1035 0 1.05175 1.07017632 1.05175 1.82168451c0 .5522847.4477153 1 1 1s1-.4477153 1-1c0-.078-.019-.15-.023-.227 2.8632149.17698891 5.2708325 2.2122023 5.922 5.006-.4663792.1360285-.9046296.3544764-1.294.645-.4418278.3313708-.5313708.9581722-.2 1.4s.9581722.5313708 1.4.2c.7992752-.5915284 1.9031444-.5444136 2.6491099.113068s.9313487 1.7466923.4448901 2.613932c-.2190393.3821471-.5503651.6876371-.949.875-.5000938.234721-.715221.8304062-.4805 1.3305s.8304062.715221 1.3305.4805c.2653408-.1284251.5161136-.2849905.748-.467.5179403 1.4723837.1912506 3.1100503-.852 4.271l-.018.019c-1.3042269 1.4132025-3.3853035 1.7946925-5.106.936-.1685217-.0884679-.3305909-.1887168-.485-.3.736526-1.0316847.8393863-2.3869748.267-3.518-.1595191-.3197527-.4775068-.530114-.8341803-.5518427-.3566735-.0217288-.6978456.148476-.895.4465-.1971545.2980239-.2203388.67859-.0608197.9983427.3307752.6610472.1253838 1.4647156-.482 1.886-.3553341.2371865-.7946421.3124077-1.2086456.2069522s-.7637917-.3816764-.9623544-.7599522c-.1505331-.3352823-.4728503-.560972-.8393978-.5877549s-.7182475.1496579-.9159183.4594976c-.1976707.3098398-.209453.7031405-.0306839 1.0242573.7924969 1.6173802 2.6976151 2.3506546 4.37 1.682.3576468.3120871.7510641.5806314 1.172.8 1.4258688.7378592 3.0832475.8906825 4.62.426-.9881191 1.3496411-2.4670999 2.2568547-4.118 2.526-.5164685.0807281-.8836179.5456149-.8424633 1.066732s.4767254.92261.9994633.921268c.0536013.000104.1071186-.0042443.16-.013.6085731-.1055551 1.2033216-.279317 1.773-.518.3078359.5449849.5575408 1.1208145.745 1.718.034839.1037641.052406.2125441.052.322-.0000809.4319675-.2577812.8222556-.655.992-.4601002.1793734-.9833864.0383171-1.291-.348-.7753347-.9089086-1.7895947-1.5826572-2.928-1.945-2.161-.73-2.995-1.375-3.345-2.079zm3.275 10.533c.074-.423.164-.852.255-1.284.390066-1.5115533.5432213-3.0744801.454-4.633.28386.2004321.5415277.4355917.767.7.459033.542997 1.0855499.9179925 1.781 1.066-.0944366.8250822-.2343158 1.6443268-.419 2.454-.1.456-.189.908-.268 1.352-1.096 6.13.568 12.064 2.424 17.264h-2.414c-1.861-5.115-3.639-10.995-2.584-16.916z" data-original="#428DFF" class="" data-old_color="#428DFF" style="fill:#6C8BC2"/><path id="Shape" d="m36.038 18.578c.0744538-.3538613-.0479307-.7203513-.3200693-.9584726-.2721387-.2381213-.6516311-.3107736-.9924777-.1900059-.3408465.1207677-.5899418.4161394-.651453.7724785-.1964965 1.0312282-.7914842 1.9434708-1.656 2.539-1.6627796 1.1209256-3.8933765.868797-5.264-.595-.3703069-.4097953-1.0027047-.4418069-1.4125-.0715-.4097952.3703069-.4418069 1.0027047-.0715 1.4125.8467792.9357661 1.9661484 1.581852 3.2 1.847-.5587904.7895911-1.4666859 1.2580861-2.434 1.256-.5522847 0-1 .4477153-1 1s.4477153 1 1 1c2.071894.0100616 3.9317517-1.2687899 4.664-3.207 2.4870644-.4114255 4.4562641-2.3255929 4.938-4.8z" data-original="#428DFF" class="" data-old_color="#428DFF" style="fill:#6C8BC2"/><path id="Shape" d="m26.855 14.39c0-.5522847-.4477153-1-1-1-2.5391394.0033055-4.5966945 2.0608606-4.6 4.6 0 .5522847.4477153 1 1 1s1-.4477153 1-1c0-1.4359403 1.1640597-2.6 2.6-2.6.5522847 0 1-.4477153 1-1z" data-original="#428DFF" class="" data-old_color="#428DFF" style="fill:#6C8BC2"/></g></g></g></g> </svg>
