<svg xmlns="http://www.w3.org/2000/svg" width="92.904" height="76.208" viewBox="0 0 92.904 76.208"><defs><style>.a{fill:#52a4ff;}</style></defs><path class="a" d="M321.5,324.171H310.441a35.608,35.608,0,0,1-11,10.889H321.5v8.163l16.512-13.606L321.5,316.008Z" transform="translate(-245.108 -267.016)"/><path class="a" d="M35.771,114.042A29.928,29.928,0,0,0,38.287,54.31v-8.3L21.956,59.616,38.287,73.222V65.335a19.01,19.01,0,0,1-2.722,37.83H0v10.887H35.784C35.778,114.048,35.777,114.045,35.771,114.042Z" transform="translate(0 -46.007)"/><path class="a" d="M47.648,168.133a18.93,18.93,0,0,1,2.133-28.979l-8.553-7.127a29.626,29.626,0,0,0-6.864,36.105Z" transform="translate(-25.375 -116.419)"/></svg>