<svg xmlns="http://www.w3.org/2000/svg" height="512px" viewBox="0 0 46 56" width="512px" class=""><g><g id="036---Heart-Disease"><path id="Shape" d="m20.435 8.015-.369 1.368c1.62 1.083 3.929 1.228 4.765.742.191-.111.205-.157.09-.359-.5-.866-2.597-1.866-4.486-1.751z" data-original="#000000" class="active-path" data-old_color="#000000" fill="#BDD1F8"/><ellipse id="Oval" cx="6" cy="2" rx="3" ry="1" data-original="#000000" class="active-path" data-old_color="#000000" fill="#BDD1F8"/><path id="Shape" d="m15.73 0c-.92 0-1.479.251-1.523.412-.064.239.767 1.243 2.635 1.749.7862692.2317758 1.6141918.2860826 2.424.159.494-.1.7-.273.726-.331.132-.353-1.647-1.989-4.262-1.989z" data-original="#000000" class="active-path" data-old_color="#000000" fill="#BDD1F8"/><path id="Shape" d="m22.854 17.288c-.5464857-.0806336-.9241335-.5890142-.8435-1.1355.0806336-.5464857.5890143-.9241336 1.1355-.8435.131.019.258.046.388.067l.826-3.051c-1.67017.1901845-3.3583843-.1387292-4.835-.942-.633 2.341-.525 1.628-.525 6.617 0 .5522847-.4477153 1-1 1s-1-.4477153-1-1c0-6.1-.388-3.5 2.365-13.691-2.060441.25174151-4.1379239-.30887759-5.792-1.563l-2.573 9.505c0 5.709.236 8.2-1.052 12.065-.11289592.3394023-.39828504.5927937-.74866403.6647242-.35037899.0719304-.71251695-.0485282-.95000001-.3160001s-.3142319-.6413218-.20133596-.9807241c1.268-3.797.952-5.384.952-19.263-1.92521199.77350118-4.07478801.77350118-6 0v12.257c.04214677 1.8843171-.54437242 3.7290203-1.667 5.243-.86211102 1.1247884-1.33049401 2.5018274-1.333 3.919v11.78c.00356241 2.7159426.80927059 5.3703267 2.316 7.63l7.11-4.742c4.7374761-3.1428262 7.5821567-8.4528466 7.574-14.138v-4.37c0-.5522847.4477153-1 1-1s1 .4477153 1 1v4.37c.0078569 6.3535616-3.1716676 12.2874722-8.466 15.8l-6.985 4.659c1.8880722 2.1267633 4.39884397 3.603832 7.175 4.221 23.317 5.124 22.065 4.95 23.776 4.95 6.3867389-.0462384 11.5310433-5.2531691 11.5-11.64-.0071637-13.4884344-9.8225593-24.968707-23.146-27.072zm-20.854 7.712c0-.5522847.44771525-1 1-1s1 .4477153 1 1-.44771525 1-1 1-1-.4477153-1-1zm2 16c-.55228475 0-1-.4477153-1-1s.44771525-1 1-1 1 .4477153 1 1-.44771525 1-1 1zm5-12c-.55228475 0-1 .4477153-1 1v3c0 2.97-4 3.919-4 2 0-.5522847.44771525-1 1-1s1-.4477153 1-1v-2c0-.5522847-.44771525-1-1-1s-1-.4477153-1-1 .44771525-1 1-1c.5168022.0029438 1.0238723.1408282 1.471.4 1.054-1.661 3.529-1.9 3.529-.4 0 .5522847-.44771525 1-1 1zm2 4c-.5522847 0-1-.4477153-1-1s.4477153-1 1-1 1 .4477153 1 1-.4477153 1-1 1zm-1 15c-.55228475 0-1-.4477153-1-1s.44771525-1 1-1c.5522847 0 1 .4477153 1 1s-.4477153 1-1 1zm5-1c-.5522847 0-1-.4477153-1-1s.4477153-1 1-1 1 .4477153 1 1-.4477153 1-1 1zm3-5c-.5522847 0-1-.4477153-1-1s.4477153-1 1-1 1 .4477153 1 1-.4477153 1-1 1zm13-13c.5522847 0 1 .4477153 1 1s-.4477153 1-1 1-1-.4477153-1-1 .4477153-1 1-1zm-11 4c0-.5522847.4477153-1 1-1s1 .4477153 1 1-.4477153 1-1 1-1-.4477153-1-1zm2 16c-.5522847 0-1-.4477153-1-1s.4477153-1 1-1 1 .4477153 1 1-.4477153 1-1 1zm1-6c-.5522847 0-1-.4477153-1-1s.4477153-1 1-1 1 .4477153 1 1-.4477153 1-1 1zm1-5c-.5522847 0-1-.4477153-1-1s.4477153-1 1-1 1 .4477153 1 1-.4477153 1-1 1zm2-9c-.5522847 0-1-.4477153-1-1s.4477153-1 1-1 1 .4477153 1 1-.4477153 1-1 1zm2 22c-.5522847 0-1-.4477153-1-1s.4477153-1 1-1 1 .4477153 1 1-.4477153 1-1 1zm4-3c-.8276465-.0013656-1.6182133-.3434647-2.1857842-.9458466-.5675708-.6023818-.862061-1.4118899-.8142158-2.2381534-.320257.1184378-.6585603.1806856-1 .184-.5522847 0-1-.4477153-1-1s.4477153-1 1-1 1-.4477153 1-1v-6c0-.5522847-.4477153-1-1-1s-1-.4477153-1-1c0-1.5 2.476-1.259 3.529.4.4471277-.2591718.9541978-.3970562 1.471-.4.5522847 0 1 .4477153 1 1s-.4477153 1-1 1-1 .4477153-1 1v8c0 .5522847.4477153 1 1 1s1 .4477153 1 1-.4477153 1-1 1zm2 6c-.5522847 0-1-.4477153-1-1s.4477153-1 1-1 1 .4477153 1 1-.4477153 1-1 1zm0-27c-.5522847 0-1-.4477153-1-1s.4477153-1 1-1 1 .4477153 1 1-.4477153 1-1 1zm3 22c-.5522847 0-1-.4477153-1-1s.4477153-1 1-1 1 .4477153 1 1-.4477153 1-1 1zm0-5c-.5522847 0-1-.4477153-1-1s.4477153-1 1-1 1 .4477153 1 1-.4477153 1-1 1zm0-5c-.5522847 0-1-.4477153-1-1s.4477153-1 1-1 1 .4477153 1 1-.4477153 1-1 1zm0-7c-.5522847 0-1-.4477153-1-1s.4477153-1 1-1 1 .4477153 1 1-.4477153 1-1 1zm5 8c.5522847 0 1 .4477153 1 1s-.4477153 1-1 1-1-.4477153-1-1 .4477153-1 1-1z" data-original="#000000" class="active-path" data-old_color="#000000" fill="#BDD1F8"/></g></g> </svg>
