<svg xmlns="http://www.w3.org/2000/svg" height="512px" viewBox="0 0 512 512" width="512px" class=""><g><path d="m464 104h-416a40.045 40.045 0 0 0 -40 40v224a40.045 40.045 0 0 0 40 40h416a40.045 40.045 0 0 0 40-40v-224a40.045 40.045 0 0 0 -40-40zm-440 40a24.027 24.027 0 0 1 24-24h416a24.027 24.027 0 0 1 24 24v8h-464zm464 224a24.027 24.027 0 0 1 -24 24h-416a24.027 24.027 0 0 1 -24-24v-200h464z" data-original="#000000" class="active-path" data-old_color="#000000" fill="#A9BBE0"/><path d="m64 128h-16a8 8 0 0 0 0 16h16a8 8 0 0 0 0-16z" data-original="#000000" class="active-path" data-old_color="#000000" fill="#A9BBE0"/><path d="m104 128h-16a8 8 0 0 0 0 16h16a8 8 0 0 0 0-16z" data-original="#000000" class="active-path" data-old_color="#000000" fill="#A9BBE0"/><path d="m144 128h-16a8 8 0 0 0 0 16h16a8 8 0 0 0 0-16z" data-original="#000000" class="active-path" data-old_color="#000000" fill="#A9BBE0"/><path d="m368 240h64a8 8 0 0 0 0-16h-64a8 8 0 0 0 0 16z" data-original="#000000" class="active-path" data-old_color="#000000" fill="#A9BBE0"/><path d="m336 272h96a8 8 0 0 0 0-16h-96a8 8 0 0 0 0 16z" data-original="#000000" class="active-path" data-old_color="#000000" fill="#A9BBE0"/><path d="m336 304h96a8 8 0 0 0 0-16h-96a8 8 0 0 0 0 16z" data-original="#000000" class="active-path" data-old_color="#000000" fill="#A9BBE0"/><path d="m336 336h48a8 8 0 0 0 0-16h-48a8 8 0 0 0 0 16z" data-original="#000000" class="active-path" data-old_color="#000000" fill="#A9BBE0"/><path d="m416 320h-8a8 8 0 0 0 0 16h8a8 8 0 0 0 0-16z" data-original="#000000" class="active-path" data-old_color="#000000" fill="#A9BBE0"/><path d="m336 240h8a8 8 0 0 0 0-16h-8a8 8 0 0 0 0 16z" data-original="#000000" class="active-path" data-old_color="#000000" fill="#A9BBE0"/><path d="m64 360h224a8 8 0 0 0 0-16h-32v-64a8 8 0 0 0 -8-8h-32a8 8 0 0 0 -8 8v64h-8v-136a8 8 0 0 0 -8-8h-32a8 8 0 0 0 -8 8v136h-8v-104a8 8 0 0 0 -8-8h-32a8 8 0 0 0 -8 8v104h-32a8 8 0 0 0 0 16zm160-72h16v56h-16zm-56-72h16v128h-16zm-56 32h16v96h-16z" data-original="#000000" class="active-path" data-old_color="#000000" fill="#A9BBE0"/></g> </svg>
