<svg xmlns="http://www.w3.org/2000/svg" id="Layer_1" enable-background="new 0 0 512 512" height="512px" viewBox="0 0 512 512" width="512px" class=""><g><g><g fill="#2387c3"><path d="m123.294 48c-6.248-6.248-16.379-6.248-22.627 0l-22.667 22.666c-6.248 6.249-6.248 16.38 0 22.628l74.03 74.029-10.726 10.726-74.03-74.029c-6.248-6.248-16.379-6.248-22.627 0l-22.667 22.667c-6.248 6.248-6.248 16.379 0 22.627l89.373 89.373c6.248 6.248 16.379 6.248 22.627 0l22.667-22.667c6.249-6.248 6.249-16.379 0-22.627l-4.676-4.677 10.726-10.726 21.284 21.284v253.412c0 8.836 7.164 16 16 16h32c8.836 0 16-7.164 16-16v-266.745c0-8.487-3.371-16.627-9.373-22.628z" data-original="#2387C3" class="active-path" style="fill:#BDD1F8" data-old_color="#2387C3"/><path d="m490 126.687-22.667-22.667c-6.248-6.248-16.379-6.248-22.627 0l-74.02 74.02-10.726-10.726 74.02-74.02c6.248-6.248 6.248-16.379 0-22.628l-22.666-22.666c-6.248-6.248-16.379-6.248-22.627 0l-115.314 115.313c-6.001 6.001-9.373 14.141-9.373 22.628v10.745h-16v16h16v32h-16v16h16v192c0 8.836 7.164 16 16 16h32c8.836 0 16-7.164 16-16v-253.412l21.294-21.294 10.726 10.726-4.686 4.687c-6.248 6.248-6.248 16.379 0 22.627l22.666 22.667c6.249 6.248 16.379 6.248 22.627 0l89.373-89.374c6.249-6.248 6.249-16.378 0-22.626z" data-original="#2387C3" class="active-path" style="fill:#BDD1F8" data-old_color="#2387C3"/></g><g><path d="m78 70.667 22.667-22.667c6.248-6.248 16.379-6.248 22.627 0l36.696 36.696-45.294 45.294-36.696-36.696c-6.248-6.248-6.248-16.379 0-22.627z" fill="#faa032" data-original="#FAA032" style="fill:#FAA032" class=""/></g><g><path d="m21.99 126.676 22.667-22.667c6.248-6.248 16.379-6.248 22.627 0l36.696 36.696-45.294 45.295-36.696-36.696c-6.248-6.248-6.248-16.379 0-22.628z" fill="#faa032" data-original="#FAA032" style="fill:#FAA032" class=""/></g><g><path d="m434.01 70.667-22.667-22.667c-6.248-6.248-16.379-6.248-22.627 0l-36.696 36.696 45.294 45.294 36.696-36.696c6.248-6.248 6.248-16.379 0-22.627z" fill="#faa032" data-original="#FAA032" style="fill:#FAA032" class=""/></g><g><path d="m490.02 126.676-22.667-22.667c-6.248-6.248-16.379-6.248-22.627 0l-36.696 36.696 45.294 45.295 36.696-36.696c6.248-6.248 6.248-16.379 0-22.628z" fill="#faa032" data-original="#FAA032" style="fill:#FAA032" class=""/></g><g><path d="m200 196.686c-4.418 0-8 3.582-8 8v240c0 4.418 3.582 8 8 8 4.418 0 8-3.582 8-8v-240c0-4.418-3.582-8-8-8z" fill="#5ad7ff" data-original="#5AD7FF" class="" style="fill:#FFFFFF" data-old_color="#5ad7ff"/></g><g><path d="m368 100.686-80 80v264c0 4.418-3.582 8-8 8-4.418 0-8-3.582-8-8v-259.39c0-6.365 2.528-12.469 7.028-16.97l78.302-78.311z" fill="#5ad7ff" data-original="#5AD7FF" class="" style="fill:#FFFFFF" data-old_color="#5ad7ff"/></g><g><path d="m368 100.686-10.667-10.666 34.667-34.667c2.945-2.946 7.721-2.946 10.667 0 2.946 2.946 2.946 7.721 0 10.667z" fill="#fad741" data-original="#FAD741" class="" style="fill:#FAD741"/></g><g><path d="m154.667 90.02-10.667 10.666-34.667-34.666c-2.946-2.946-2.946-7.721 0-10.667 2.946-2.946 7.721-2.946 10.667 0z" fill="#fad741" data-original="#FAD741" class="" style="fill:#FAD741"/></g><g><path d="m97.333 147.353-10.666 10.667-34.667-34.667c-2.946-2.946-2.946-7.721 0-10.667 2.946-2.946 7.721-2.946 10.667 0z" fill="#fad741" data-original="#FAD741" class="" style="fill:#FAD741"/></g><g><path d="m141.333 202.02c-2.946 2.946-7.721 2.946-10.667 0l-44-44 10.667-10.667 44 44c2.946 2.945 2.946 7.721 0 10.667z" fill="#5ad7ff" data-original="#5AD7FF" class="" style="fill:#FFFFFF" data-old_color="#5ad7ff"/></g><g><path d="m414.667 147.353 10.667 10.667 34.666-34.667c2.946-2.946 2.946-7.721 0-10.667-2.945-2.946-7.721-2.946-10.667 0z" fill="#fad741" data-original="#FAD741" class="" style="fill:#FAD741"/></g><g><path d="m370.667 202.02c2.946 2.946 7.721 2.946 10.667 0l44-44-10.667-10.667-44 44c-2.946 2.945-2.946 7.721 0 10.667z" fill="#5ad7ff" data-original="#5AD7FF" class="" style="fill:#FFFFFF" data-old_color="#5ad7ff"/></g><g><path d="m237.333 183.353c-2.946 2.946-7.721 2.946-10.667 0l-82.666-82.667 10.667-10.667 82.667 82.667c2.945 2.946 2.945 7.721-.001 10.667z" fill="#5ad7ff" data-original="#5AD7FF" class="" style="fill:#FFFFFF" data-old_color="#5ad7ff"/></g></g></g> </svg>
