<svg xmlns="http://www.w3.org/2000/svg" xmlns:xlink="http://www.w3.org/1999/xlink" version="1.1" id="Capa_1" x="0px" y="0px" viewBox="0 0 512 512" style="enable-background:new 0 0 512 512;" xml:space="preserve" width="512px" height="512px" class=""><g><g>
	<g>
		<circle cx="226" cy="256" r="15" data-original="#000000" class="active-path" data-old_color="#000000" fill="#BDD1F8"/>
	</g>
</g><g>
	<g>
		<circle cx="346" cy="346" r="15" data-original="#000000" class="active-path" data-old_color="#000000" fill="#BDD1F8"/>
	</g>
</g><g>
	<g>
		<circle cx="316" cy="106" r="15" data-original="#000000" class="active-path" data-old_color="#000000" fill="#BDD1F8"/>
	</g>
</g><g>
	<g>
		<circle cx="106" cy="286" r="15" data-original="#000000" class="active-path" data-old_color="#000000" fill="#BDD1F8"/>
	</g>
</g><g>
	<g>
		<path d="M512,256c0-21.245-14.8-39.099-34.63-43.794c-1.943-9.054-4.693-18.483-8.369-28.709    c14.613-14.003,18.396-36.706,7.836-54.997c-10.705-18.54-32.423-26.421-51.738-20.67c-6.509-7.42-13.507-14.418-20.93-20.929    c5.749-19.308-2.125-41.032-20.669-51.738c-18.573-10.723-41.226-6.611-55.01,7.831c-10.222-3.674-19.646-6.421-28.696-8.364    C295.099,14.8,277.245,0,256,0s-39.099,14.8-43.794,34.63c-9.049,1.943-18.474,4.69-28.696,8.364    c-13.806-14.466-36.462-18.54-55.01-7.831c-18.513,10.688-26.428,32.399-20.669,51.739c-7.424,6.511-14.421,13.508-20.929,20.929    c-19.243-5.729-40.996,2.063-51.739,20.67c-10.56,18.291-6.777,40.993,7.835,54.996c-3.676,10.228-6.425,19.655-8.369,28.709    C14.8,216.901,0,234.755,0,256s14.8,39.099,34.63,43.794c1.944,9.054,4.692,18.481,8.369,28.709    c-14.611,14.002-18.395,36.704-7.835,54.998c10.596,18.349,32.249,26.417,51.729,20.658c6.515,7.429,13.518,14.431,20.948,20.947    c-5.757,19.48,2.311,41.136,20.658,51.728c18.565,10.721,41.219,6.621,55.01-7.829c10.225,3.674,19.648,6.421,28.697,8.364    C216.901,497.2,234.755,512,256,512s39.099-14.8,43.794-34.63c9.048-1.942,18.474-4.69,28.697-8.364    c13.802,14.462,36.456,18.542,55.009,7.83c18.351-10.595,26.42-32.251,20.66-51.729c7.43-6.516,14.434-13.519,20.948-20.947    c19.477,5.758,41.133-2.311,51.729-20.66c10.56-18.292,6.776-40.994-7.836-54.997c3.676-10.226,6.426-19.655,8.369-28.709    C497.2,295.099,512,277.245,512,256z M467,271h-2.386c-7.462,0-13.788,5.484-14.848,12.87    c-1.905,13.281-5.969,27.404-12.787,44.445c-2.771,6.925-0.032,14.834,6.428,18.563l1.959,1.131    c7.162,4.135,9.625,13.327,5.49,20.49c-4.137,7.165-13.33,9.626-20.493,5.49l-2.009-1.159c-6.453-3.724-14.661-2.146-19.275,3.704    c-9.519,12.07-20.469,23.02-32.545,32.543c-5.849,4.612-7.427,12.818-3.707,19.271l1.163,2.016    c4.135,7.164,1.673,16.355-5.491,20.491c-7.18,4.145-16.342,1.692-20.488-5.489l-1.13-1.958    c-3.728-6.46-11.637-9.198-18.562-6.429c-17.05,6.819-31.174,10.882-44.449,12.787c-7.386,1.06-12.87,7.387-12.87,14.848V467    c0,8.271-6.729,15-15,15s-15-6.729-15-15v-2.386c0-7.461-5.484-13.789-12.87-14.848c-13.276-1.904-27.4-5.967-44.448-12.787    c-6.925-2.77-14.833-0.031-18.562,6.429l-1.129,1.957c-4.144,7.179-13.308,9.636-20.49,5.489    c-7.163-4.135-9.625-13.328-5.489-20.493l1.159-2.009c3.724-6.453,2.146-14.662-3.704-19.275    c-12.077-9.524-23.027-20.473-32.545-32.543c-4.614-5.851-12.822-7.428-19.275-3.704l-2.012,1.161    c-7.162,4.134-16.354,1.671-20.49-5.49c-4.135-7.164-1.672-16.356,5.492-20.492l1.959-1.131c6.458-3.73,9.195-11.637,6.425-18.561    c-6.818-17.042-10.881-31.165-12.786-44.446c-1.06-7.386-7.387-12.87-14.848-12.87H45c-8.271,0-15-6.729-15-15s6.729-15,15-15    h2.386c7.461,0,13.789-5.484,14.848-12.87c1.905-13.281,5.968-27.404,12.786-44.446c2.77-6.924,0.033-14.832-6.425-18.561    l-1.959-1.132c-7.164-4.136-9.627-13.329-5.492-20.491c4.145-7.179,13.305-9.639,20.494-5.49l2.009,1.159    c6.453,3.724,14.662,2.146,19.275-3.704c9.518-12.069,20.468-23.019,32.546-32.546c5.85-4.614,7.426-12.822,3.702-19.275    l-1.161-2.01c-4.144-7.179-1.689-16.346,5.491-20.491c7.178-4.145,16.344-1.691,20.492,5.492l1.131,1.959    c3.73,6.458,11.638,9.197,18.561,6.425c17.042-6.818,31.166-10.881,44.446-12.786c7.386-1.059,12.87-7.386,12.87-14.848V45    c0-8.271,6.729-15,15-15s15,6.729,15,15v2.386c0,7.461,5.484,13.789,12.87,14.848c13.28,1.905,27.403,5.968,44.446,12.786    c6.92,2.77,14.83,0.034,18.56-6.423l1.134-1.964c4.144-7.177,13.31-9.636,20.49-5.49c7.132,4.117,9.663,13.261,5.486,20.497    l-1.158,2.009c-3.721,6.452-2.144,14.657,3.705,19.27c12.078,9.527,23.028,20.477,32.546,32.546    c4.613,5.85,12.822,7.427,19.275,3.704l2.013-1.162c7.181-4.146,16.343-1.691,20.489,5.491c4.135,7.162,1.672,16.354-5.489,20.49    l-1.96,1.131c-6.46,3.729-9.198,11.638-6.428,18.563c6.818,17.041,10.882,31.164,12.787,44.445    c1.06,7.386,7.386,12.87,14.848,12.87H467c8.271,0,15,6.729,15,15S475.271,271,467,271z" data-original="#000000" class="active-path" data-old_color="#000000" fill="#BDD1F8"/>
	</g>
</g><g>
	<g>
		<path d="M399.033,215.394l-42.427-42.427c-17.545-17.546-46.095-17.544-63.64,0c-17.587,17.585-17.59,46.051,0,63.64    l42.427,42.427c17.544,17.545,46.094,17.546,63.64,0C416.62,261.449,416.623,232.983,399.033,215.394z M377.82,257.82    c-5.848,5.849-15.364,5.849-21.214,0l-42.427-42.427c-5.849-5.848-5.849-15.365,0-21.213c5.848-5.848,15.365-5.849,21.214,0    l42.427,42.427C383.683,242.47,383.683,251.957,377.82,257.82z" data-original="#000000" class="active-path" data-old_color="#000000" fill="#BDD1F8"/>
	</g>
</g><g>
	<g>
		<path d="M249.032,112.966c-17.545-17.545-46.094-17.545-63.639,0l-42.426,42.427c-17.546,17.546-17.546,46.094,0,63.64    c17.545,17.545,46.094,17.546,63.639,0l42.426-42.427C266.578,159.06,266.578,130.512,249.032,112.966z M227.819,155.393    l-42.426,42.426c-5.849,5.848-15.365,5.848-21.213,0c-5.863-5.862-5.862-15.35,0-21.213l42.426-42.426    c5.849-5.849,15.365-5.848,21.213,0C233.682,140.043,233.682,149.53,227.819,155.393z" data-original="#000000" class="active-path" data-old_color="#000000" fill="#BDD1F8"/>
	</g>
</g><g>
	<g>
		<path d="M272.207,317.895l-54.378-25.357c-22.541-10.511-49.29-0.778-59.802,21.766c-10.486,22.488-0.722,49.315,21.766,59.802    l54.378,25.356c22.636,10.556,49.332,0.688,59.802-21.766C304.46,355.208,294.695,328.381,272.207,317.895z M266.784,365.018    c-3.504,7.514-12.42,10.76-19.934,7.255l-54.378-25.357c-7.496-3.496-10.751-12.438-7.255-19.934    c3.49-7.485,12.389-10.773,19.934-7.255l54.378,25.357C267.024,348.58,270.28,357.522,266.784,365.018z" data-original="#000000" class="active-path" data-old_color="#000000" fill="#BDD1F8"/>
	</g>
</g></g> </svg>
