<svg xmlns="http://www.w3.org/2000/svg" width="83.582" height="75.226" viewBox="0 0 83.582 75.226"><defs><style>.a{fill:#52a4ff;}</style></defs><path class="a" d="M72.819,46.829a4.849,4.849,0,0,1-4.849,4.993h-1.3a4.84,4.84,0,0,1,2.42,4.7,4.959,4.959,0,0,1-4.984,4.35H62.96a4.84,4.84,0,0,1,2.42,4.7A4.959,4.959,0,0,1,60.4,69.93H59.254a4.84,4.84,0,0,1,2.42,4.7,4.959,4.959,0,0,1-4.984,4.35H54.253l-29.008.338A1.523,1.523,0,0,1,23.7,77.8V48.453h0a1.557,1.557,0,0,1,1.015-1.506L28.1,45.762,39.436,21.688a3.783,3.783,0,0,1,7.455.728L44.242,42.132h23.55A4.984,4.984,0,0,1,72.819,46.829Zm-52.914,4.18v25a4.773,4.773,0,0,1-4.773,4.773H5.393A4.773,4.773,0,0,1,.62,76.006v-25a4.773,4.773,0,0,1,4.773-4.773h9.748a4.773,4.773,0,0,1,4.764,4.773Zm-5.2.432H5.824V75.574h8.885ZM82.618,16.086l-9.046-1.312-4.087-8.2a1.836,1.836,0,0,0-3.292,0l-4.045,8.2-9.012,1.312a1.836,1.836,0,0,0-1.015,3.131l6.55,6.38-1.549,9.012a1.836,1.836,0,0,0,2.666,1.938l8.09-4.231,8.09,4.231a1.836,1.836,0,0,0,2.666-1.938L77.1,25.6l6.55-6.38a1.836,1.836,0,0,0-1.032-3.131Z" transform="translate(-0.62 -5.552)"/></svg>