<svg id="Group_10132" data-name="Group 10132" xmlns="http://www.w3.org/2000/svg" xmlns:xlink="http://www.w3.org/1999/xlink" width="383.057" height="311" viewBox="0 0 383.057 311">
  <defs>
    <clipPath id="clip-path">
      <path id="Path_3754" data-name="Path 3754" d="M390.954,184.16c-7.053-9.277-11.385-21.776-11.385-35.538,0-28.612,18.691-51.808,41.747-51.808s41.747,23.2,41.747,51.808c0,14.32-4.682,27.282-12.249,36.66l21.005,25.454c12.867-15.86,20.837-37.829,20.837-62.114,0-48.354-31.587-87.552-70.551-87.552s-70.551,39.2-70.551,87.552c0,23.876,7.711,45.509,20.2,61.3Z" transform="translate(-351.555 -61.07)" fill="none"/>
    </clipPath>
  </defs>
  <g id="Background_Complete" data-name="Background Complete" transform="translate(0 24.677)">
    <g id="Group_8387" data-name="Group 8387" transform="translate(343.862 185.063)">
      <g id="Group_8365" data-name="Group 8365">
        <g id="Group_8364" data-name="Group 8364">
          <path id="Path_3704" data-name="Path 3704" d="M668.523,336.843s-3.859-2.07-6.6,9.108a162.988,162.988,0,0,0-3.484,17.442s-.8,2.393-2.195,1.252-3.589-4.762-5.507-3.6c-1.988,1.206-2.262,4.261-1.25,8.437s2.957,13.426,3.13,14.262-.038,2.134-1.085,1.546-7.48-6.822-9.681-2.857,2.157,15.024,2.616,16.244.334,1.812-.111,2.237-2.448-1.923-4.336-3.6-4.314-3.217-5.43-.8-.314,11.263,8.429,23.982l4.362,5.565,6.115-1.79c12.9-4.821,17.431-11.718,17.548-14.5s-2.593-3.121-4.913-2.977-5.029.772-5.217.115-.034-1.237.883-1.955,9.405-7.089,9.285-11.9-8.248-3.893-9.385-4.1-.74-1.452-.239-2.029,6.182-7.058,8.854-9.889,3.774-5.583,2.629-7.934c-1.1-2.267-4.533-.7-6.2-.673s-1.3-2.527-1.3-2.527a157.983,157.983,0,0,0,4.678-17.005c2.574-11.238-1.681-12.086-1.681-12.086" transform="translate(-634.199 -336.692)" fill="#ebebeb"/>
        </g>
      </g>
      <g id="Group_8368" data-name="Group 8368" transform="translate(10.249 10.157)">
        <g id="Group_8367" data-name="Group 8367">
          <g id="Group_8366" data-name="Group 8366">
            <path id="Path_3705" data-name="Path 3705" d="M673.119,350.516s-.011.082-.043.24-.085.4-.149.694c-.137.621-.336,1.516-.59,2.664-.515,2.313-1.281,5.653-2.239,9.775-1.915,8.245-4.638,19.607-7.679,32.142s-5.789,23.893-7.741,32.123l-2.3,9.75c-.271,1.142-.483,2.032-.629,2.65q-.108.44-.169.687c-.04.155-.065.232-.065.232s.011-.082.043-.24.085-.4.148-.694c.138-.621.336-1.517.591-2.663.515-2.313,1.28-5.652,2.239-9.775,1.915-8.245,4.639-19.608,7.681-32.146s5.788-23.887,7.739-32.118c.971-4.108,1.758-7.436,2.3-9.75l.629-2.651c.072-.293.128-.522.169-.687S673.119,350.516,673.119,350.516Z" transform="translate(-651.511 -350.516)" fill="#e0e0e0"/>
          </g>
        </g>
      </g>
      <g id="Group_8371" data-name="Group 8371" transform="translate(19.451 29.574)">
        <g id="Group_8370" data-name="Group 8370">
          <g id="Group_8369" data-name="Group 8369">
            <path id="Path_3706" data-name="Path 3706" d="M667.055,376.944a2.386,2.386,0,0,1,.233.482c.139.317.328.784.557,1.363.456,1.159,1.051,2.782,1.681,4.587l1.6,4.629.488,1.4a2.593,2.593,0,0,1,.161.525,2.43,2.43,0,0,1-.236-.481c-.139-.317-.327-.785-.552-1.367-.447-1.165-1.025-2.8-1.655-4.6l-1.623-4.613-.494-1.4A2.729,2.729,0,0,1,667.055,376.944Z" transform="translate(-667.053 -376.944)" fill="#e0e0e0"/>
          </g>
        </g>
      </g>
      <g id="Group_8374" data-name="Group 8374" transform="translate(24.756 35.332)">
        <g id="Group_8373" data-name="Group 8373">
          <g id="Group_8372" data-name="Group 8372">
            <path id="Path_3707" data-name="Path 3707" d="M676.013,392.019c-.026-.065,2.613-1.739,5.894-3.737s5.964-3.565,5.99-3.5-2.613,1.739-5.9,3.738S676.039,392.085,676.013,392.019Z" transform="translate(-676.013 -384.781)" fill="#e0e0e0"/>
          </g>
        </g>
      </g>
      <g id="Group_8377" data-name="Group 8377" transform="translate(19.385 58.474)">
        <g id="Group_8376" data-name="Group 8376">
          <g id="Group_8375" data-name="Group 8375">
            <path id="Path_3708" data-name="Path 3708" d="M666.941,419.366a1.618,1.618,0,0,1,.45-.131l1.236-.271c1.043-.23,2.483-.554,4.062-.982s3-.867,4.024-1.2l1.215-.389a1.589,1.589,0,0,1,.454-.113,1.76,1.76,0,0,1-.43.212c-.281.12-.69.283-1.2.47-1.017.378-2.435.852-4.02,1.276s-3.033.725-4.083.908c-.526.089-.953.154-1.248.188A1.531,1.531,0,0,1,666.941,419.366Z" transform="translate(-666.941 -416.279)" fill="#e0e0e0"/>
          </g>
        </g>
      </g>
      <g id="Group_8380" data-name="Group 8380" transform="translate(12.502 51.116)">
        <g id="Group_8379" data-name="Group 8379">
          <g id="Group_8378" data-name="Group 8378">
            <path id="Path_3709" data-name="Path 3709" d="M655.317,406.265a1.864,1.864,0,0,1,.305.372c.186.25.45.618.772,1.076.645.915,1.524,2.193,2.485,3.614s1.822,2.718,2.438,3.665c.307.474.554.86.72,1.13a2.2,2.2,0,0,1,.242.438,1.825,1.825,0,0,1-.306-.371c-.186-.251-.45-.618-.772-1.076-.645-.916-1.524-2.193-2.485-3.615s-1.822-2.718-2.437-3.665c-.307-.473-.553-.859-.72-1.13A2.143,2.143,0,0,1,655.317,406.265Z" transform="translate(-655.316 -406.264)" fill="#e0e0e0"/>
          </g>
        </g>
      </g>
      <g id="Group_8383" data-name="Group 8383" transform="translate(6.044 67.135)">
        <g id="Group_8382" data-name="Group 8382">
          <g id="Group_8381" data-name="Group 8381">
            <path id="Path_3710" data-name="Path 3710" d="M644.409,428.067a3.12,3.12,0,0,1,.387.481l.992,1.375c.831,1.168,1.969,2.795,3.214,4.6s2.365,3.453,3.167,4.653l.941,1.43a3.408,3.408,0,0,1,.323.547,3.014,3.014,0,0,1-.386-.48l-.993-1.375c-.831-1.168-1.968-2.795-3.214-4.6s-2.364-3.452-3.166-4.652l-.941-1.43A3.4,3.4,0,0,1,644.409,428.067Z" transform="translate(-644.409 -428.066)" fill="#e0e0e0"/>
          </g>
        </g>
      </g>
      <g id="Group_8386" data-name="Group 8386" transform="translate(14.924 75.43)">
        <g id="Group_8385" data-name="Group 8385">
          <g id="Group_8384" data-name="Group 8384">
            <path id="Path_3711" data-name="Path 3711" d="M659.406,443.762a2.6,2.6,0,0,1,.567-.183l1.558-.414c1.315-.35,3.129-.84,5.12-1.45s3.784-1.213,5.079-1.662l1.535-.529a2.561,2.561,0,0,1,.57-.165,2.759,2.759,0,0,1-.546.264c-.355.153-.873.364-1.516.611-1.285.5-3.075,1.131-5.07,1.739s-3.818,1.073-5.142,1.376c-.663.15-1.2.263-1.572.331A2.533,2.533,0,0,1,659.406,443.762Z" transform="translate(-659.406 -439.357)" fill="#e0e0e0"/>
          </g>
        </g>
      </g>
    </g>
    <g id="Group_8418" data-name="Group 8418" transform="translate(121.374 214.513)">
      <g id="Group_8417" data-name="Group 8417">
        <g id="Group_8389" data-name="Group 8389">
          <g id="Group_8388" data-name="Group 8388">
            <rect id="Rectangle_2488" data-name="Rectangle 2488" width="77.028" height="44.085" fill="#f5f5f5"/>
          </g>
        </g>
        <g id="Group_8391" data-name="Group 8391" transform="translate(1.763 2.32)">
          <g id="Group_8390" data-name="Group 8390">
            <path id="Path_3712" data-name="Path 3712" d="M334.818,419.621H261.387V379.933h73.431Zm-72.952-.594h72.473v-38.5H261.866Z" transform="translate(-261.387 -379.933)" fill="#e0e0e0"/>
          </g>
        </g>
        <g id="Group_8393" data-name="Group 8393" transform="translate(77.028)">
          <g id="Group_8392" data-name="Group 8392">
            <rect id="Rectangle_2489" data-name="Rectangle 2489" width="18.818" height="44.085" fill="#e0e0e0"/>
          </g>
        </g>
        <g id="Group_8396" data-name="Group 8396" transform="translate(1.909 14.362)">
          <g id="Group_8395" data-name="Group 8395">
            <g id="Group_8394" data-name="Group 8394">
              <path id="Path_3713" data-name="Path 3713" d="M261.727,396.563h72.952c.125,0,.125-.24,0-.24H261.727c-.124,0-.124.24,0,.24Z" transform="translate(-261.634 -396.323)" fill="#e0e0e0"/>
            </g>
          </g>
        </g>
        <g id="Group_8399" data-name="Group 8399" transform="translate(38.412 2.389)">
          <g id="Group_8398" data-name="Group 8398">
            <g id="Group_8397" data-name="Group 8397">
              <path id="Path_3714" data-name="Path 3714" d="M323.593,392.121c.219-3.914.2-8.058.025-11.975-.007-.156-.189-.157-.2,0-.17,3.917-.194,8.061.025,11.975.007.117.14.117.146,0Z" transform="translate(-323.288 -380.028)" fill="#e0e0e0"/>
            </g>
          </g>
        </g>
        <g id="Group_8401" data-name="Group 8401" transform="translate(56.365 7.261)">
          <g id="Group_8400" data-name="Group 8400">
            <path id="Path_3715" data-name="Path 3715" d="M355.6,387.892a1.017,1.017,0,1,1-.994-1.233A1.134,1.134,0,0,1,355.6,387.892Z" transform="translate(-353.612 -386.659)" fill="#e0e0e0"/>
          </g>
        </g>
        <g id="Group_8403" data-name="Group 8403" transform="translate(18.08 7.261)">
          <g id="Group_8402" data-name="Group 8402">
            <path id="Path_3716" data-name="Path 3716" d="M290.935,387.892a1.017,1.017,0,1,1-.994-1.233A1.134,1.134,0,0,1,290.935,387.892Z" transform="translate(-288.947 -386.659)" fill="#e0e0e0"/>
          </g>
        </g>
        <g id="Group_8405" data-name="Group 8405" transform="translate(37.485 20.93)">
          <g id="Group_8404" data-name="Group 8404">
            <path id="Path_3717" data-name="Path 3717" d="M323.71,406.5a1.017,1.017,0,1,1-.994-1.233A1.133,1.133,0,0,1,323.71,406.5Z" transform="translate(-321.722 -405.263)" fill="#e0e0e0"/>
          </g>
        </g>
        <g id="Group_8407" data-name="Group 8407" transform="translate(5.244 44.085)">
          <g id="Group_8406" data-name="Group 8406">
            <path id="Path_3718" data-name="Path 3718" d="M271.231,436.778l-3.966,27.677H269.5l7.312-27.677Z" transform="translate(-267.266 -436.778)" fill="#e0e0e0"/>
          </g>
        </g>
        <g id="Group_8409" data-name="Group 8409" transform="translate(66.001 44.085)">
          <g id="Group_8408" data-name="Group 8408">
            <path id="Path_3719" data-name="Path 3719" d="M375.464,436.778l3.316,27.725H376.55l-6.663-27.725Z" transform="translate(-369.888 -436.778)" fill="#e0e0e0"/>
          </g>
        </g>
        <g id="Group_8411" data-name="Group 8411" transform="translate(80.892 44.085)">
          <g id="Group_8410" data-name="Group 8410">
            <path id="Path_3720" data-name="Path 3720" d="M400.616,436.778l3.758,27.725h-2.231l-7.1-27.725Z" transform="translate(-395.039 -436.778)" fill="#e0e0e0"/>
          </g>
        </g>
        <g id="Group_8413" data-name="Group 8413" transform="translate(37.418 33.407)">
          <g id="Group_8412" data-name="Group 8412">
            <path id="Path_3721" data-name="Path 3721" d="M323.6,423.478a1.017,1.017,0,1,1-.994-1.234A1.133,1.133,0,0,1,323.6,423.478Z" transform="translate(-321.61 -422.244)" fill="#e0e0e0"/>
          </g>
        </g>
        <g id="Group_8416" data-name="Group 8416" transform="translate(1.909 28.014)">
          <g id="Group_8415" data-name="Group 8415">
            <g id="Group_8414" data-name="Group 8414">
              <path id="Path_3722" data-name="Path 3722" d="M261.727,415.144h72.952c.125,0,.125-.24,0-.24H261.727c-.124,0-.124.24,0,.24Z" transform="translate(-261.634 -414.904)" fill="#e0e0e0"/>
            </g>
          </g>
        </g>
      </g>
    </g>
    <g id="Group_8422" data-name="Group 8422" transform="translate(312.003 0)">
      <g id="Group_8419" data-name="Group 8419">
        <rect id="Rectangle_2490" data-name="Rectangle 2490" width="48.7" height="81.058" fill="#ebebeb"/>
      </g>
      <g id="Group_8420" data-name="Group 8420" transform="translate(2.535 3.186)">
        <rect id="Rectangle_2491" data-name="Rectangle 2491" width="43.63" height="74.686" fill="#fafafa"/>
      </g>
      <g id="Group_8421" data-name="Group 8421" transform="translate(16.674 29.02)">
        <rect id="Rectangle_2492" data-name="Rectangle 2492" width="16.657" height="23.62" fill="#ebebeb"/>
      </g>
    </g>
    <g id="Group_8426" data-name="Group 8426" transform="translate(339.494 100.274)">
      <g id="Group_8423" data-name="Group 8423" transform="translate(0 0)">
        <rect id="Rectangle_2493" data-name="Rectangle 2493" width="39.248" height="42.418" transform="translate(0 39.248) rotate(-90)" fill="#ebebeb"/>
      </g>
      <g id="Group_8424" data-name="Group 8424" transform="translate(1.667 2.043)">
        <rect id="Rectangle_2494" data-name="Rectangle 2494" width="39.084" height="35.162" fill="#fafafa"/>
      </g>
      <g id="Group_8425" data-name="Group 8425" transform="translate(15.187 12.387)">
        <rect id="Rectangle_2495" data-name="Rectangle 2495" width="13.424" height="12.36" transform="translate(0 13.424) rotate(-90)" fill="#ebebeb"/>
      </g>
    </g>
    <g id="Group_8430" data-name="Group 8430" transform="translate(0 31.302)">
      <g id="Group_8427" data-name="Group 8427">
        <rect id="Rectangle_2496" data-name="Rectangle 2496" width="30.9" height="51.43" fill="#ebebeb"/>
      </g>
      <g id="Group_8428" data-name="Group 8428" transform="translate(1.608 2.021)">
        <rect id="Rectangle_2497" data-name="Rectangle 2497" width="27.683" height="47.388" fill="#fafafa"/>
      </g>
      <g id="Group_8429" data-name="Group 8429" transform="translate(10.579 18.413)">
        <rect id="Rectangle_2498" data-name="Rectangle 2498" width="10.569" height="14.986" fill="#ebebeb"/>
      </g>
    </g>
    <g id="Group_8442" data-name="Group 8442" transform="translate(169.881 189.462)">
      <g id="Group_8440" data-name="Group 8440">
        <g id="Group_8433" data-name="Group 8433">
          <g id="Group_8432" data-name="Group 8432">
            <g id="Group_8431" data-name="Group 8431">
              <path id="Path_3723" data-name="Path 3723" d="M342.445,342.681l-2.106,24.255h26.985l2.238-24.255Z" transform="translate(-340.339 -342.681)" fill="#ebebeb"/>
            </g>
          </g>
        </g>
        <g id="Group_8436" data-name="Group 8436" transform="translate(1.167 1.742)">
          <g id="Group_8435" data-name="Group 8435">
            <g id="Group_8434" data-name="Group 8434">
              <path id="Path_3724" data-name="Path 3724" d="M344.359,345.052l-2.049,21.224h24.354l1.971-21.224Z" transform="translate(-342.31 -345.052)" fill="#fafafa"/>
            </g>
          </g>
        </g>
        <g id="Group_8439" data-name="Group 8439" transform="translate(6.053 5.312)">
          <g id="Group_8438" data-name="Group 8438">
            <g id="Group_8437" data-name="Group 8437">
              <path id="Path_3725" data-name="Path 3725" d="M351.824,349.911,350.563,364h15.369l.789-14.084Z" transform="translate(-350.563 -349.911)" fill="#e0e0e0"/>
            </g>
          </g>
        </g>
      </g>
      <g id="Group_8441" data-name="Group 8441" transform="translate(26.985 9.538)">
        <path id="Path_3726" data-name="Path 3726" d="M387.192,356.57l5.574,13.906-6.848-.1,1.358-14.717" transform="translate(-385.918 -355.662)" fill="#f5f5f5"/>
      </g>
    </g>
  </g>
  <g id="Loading" transform="translate(47.367 19.049)">
    <g id="Group_8466" data-name="Group 8466" transform="translate(0 0)">
      <g id="Group_8453" data-name="Group 8453">
        <g id="Group_8450" data-name="Group 8450">
          <g id="Group_8447" data-name="Group 8447" transform="translate(0.154 0.191)">
            <rect id="Rectangle_2499" data-name="Rectangle 2499" width="222.771" height="181.971" fill="#ebebeb"/>
          </g>
          <g id="Group_8449" data-name="Group 8449">
            <g id="Group_8448" data-name="Group 8448">
              <path id="Path_3730" data-name="Path 3730" d="M356.333,259.315c0-1.242-.048-70.973-.123-181.971l.123.152-222.753.039h-.018l.155-.191c0,64.734-.009,126.329-.013,181.971l-.142-.176,222.771.176-222.771.176h-.141v-.176c0-55.641-.008-117.237-.012-181.971v-.192h.172l222.753.039h.123v.153C356.381,188.343,356.334,258.074,356.333,259.315Z" transform="translate(-133.408 -77.153)" fill="#263238"/>
            </g>
          </g>
        </g>
        <g id="Group_8452" data-name="Group 8452" transform="translate(0.154 16.192)">
          <g id="Group_8451" data-name="Group 8451">
            <path id="Path_3731" data-name="Path 3731" d="M356.439,99.382c0,.106-49.873.191-111.381.191-61.528,0-111.391-.085-111.391-.191s49.862-.191,111.391-.191C306.566,99.191,356.439,99.276,356.439,99.382Z" transform="translate(-133.668 -99.191)" fill="#263238"/>
          </g>
        </g>
      </g>
      <g id="Group_8454" data-name="Group 8454" transform="translate(20.91 43.305)">
        <rect id="Rectangle_2500" data-name="Rectangle 2500" width="186.756" height="31.717" fill="#e0e0e0"/>
      </g>
      <g id="Group_8455" data-name="Group 8455" transform="translate(17.716 130.493)">
        <rect id="Rectangle_2501" data-name="Rectangle 2501" width="41.461" height="51.452" fill="#e0e0e0"/>
      </g>
      <g id="Group_8456" data-name="Group 8456" transform="translate(66.728 130.493)">
        <rect id="Rectangle_2502" data-name="Rectangle 2502" width="41.461" height="51.452" fill="#e0e0e0"/>
      </g>
      <g id="Group_8457" data-name="Group 8457" transform="translate(114.276 130.493)">
        <rect id="Rectangle_2503" data-name="Rectangle 2503" width="41.461" height="51.452" fill="#e0e0e0"/>
      </g>
      <g id="Group_8461" data-name="Group 8461" transform="translate(39.911 91.498)">
        <g id="Group_8458" data-name="Group 8458" transform="translate(0.151 0.191)">
          <path id="Path_3732" data-name="Path 3732" d="M252.867,218.946H207.923c-3.783,0-6.849-3.805-6.849-8.5h0c0-4.694,3.067-8.5,6.849-8.5h44.943c3.783,0,6.849,3.806,6.849,8.5h0C259.716,215.141,256.649,218.946,252.867,218.946Z" transform="translate(-201.074 -201.947)" fill="#641633"/>
        </g>
        <g id="Group_8460" data-name="Group 8460">
          <g id="Group_8459" data-name="Group 8459">
            <path id="Path_3733" data-name="Path 3733" d="M305.3,218.877s.208-.026.612-.058c.2-.019.449-.085.746-.14a6.49,6.49,0,0,0,1-.37,6.976,6.976,0,0,0,2.435-1.938,9.377,9.377,0,0,0,1.857-4.277,10.325,10.325,0,0,0-.8-5.94,7,7,0,0,0-4.685-4.036,19.079,19.079,0,0,0-3.3-.126l-3.533.007-7.68.013-84.133.057a6.351,6.351,0,0,0-5.221,3.1,9.945,9.945,0,0,0-1.34,6.9,8.479,8.479,0,0,0,3.371,5.616,5.774,5.774,0,0,0,2.745.971c.956.056,1.944.016,2.908.029l22.338.011,37.824.041,25.5.061,6.933.036,1.8.019c.406.006.614.019.614.019s-.208.013-.614.02l-1.8.019-6.933.036-25.5.06-37.824.041-22.338.011c-.973-.012-1.932.029-2.927-.027a6.041,6.041,0,0,1-2.87-1.015,8.86,8.86,0,0,1-3.526-5.872,10.4,10.4,0,0,1,1.4-7.216,6.642,6.642,0,0,1,5.461-3.247l84.133.056,7.68.014,3.533.007a19.034,19.034,0,0,1,3.326.144,7.173,7.173,0,0,1,4.783,4.155,10.516,10.516,0,0,1,.786,6.061,9.459,9.459,0,0,1-1.911,4.328,6.946,6.946,0,0,1-2.478,1.93,6.427,6.427,0,0,1-1.009.355c-.3.048-.549.108-.753.121C305.507,218.877,305.3,218.877,305.3,218.877Z" transform="translate(-200.819 -201.687)" fill="#263238"/>
          </g>
        </g>
      </g>
      <g id="Group_8462" data-name="Group 8462" transform="translate(83.714 114.267)">
        <path id="Path_3734" data-name="Path 3734" d="M275.521,233.169h.512l-.629,3.89h1.943l-.086.552H274.8Z" transform="translate(-274.805 -232.808)" fill="#263238"/>
        <path id="Path_3735" data-name="Path 3735" d="M279.75,236.574c0-1.136.665-1.979,1.59-1.979a1.276,1.276,0,0,1,1.268,1.446c0,1.142-.66,1.986-1.585,1.986A1.289,1.289,0,0,1,279.75,236.574Zm2.362-.5c0-.6-.291-.946-.808-.946-.609,0-1.059.591-1.059,1.422,0,.59.292.946.808.946C281.667,237.494,282.112,236.9,282.112,236.073Z" transform="translate(-276.822 -233.186)" fill="#263238"/>
        <path id="Path_3736" data-name="Path 3736" d="M288.322,234.627l-.537,3.363h-.47l.066-.413a1.218,1.218,0,0,1-.956.45c-.69,0-1.2-.546-1.2-1.453,0-1.155.654-1.979,1.533-1.979a.99.99,0,0,1,.977.6l.092-.571Zm-.731,1.446c0-.6-.291-.946-.808-.946-.609,0-1.059.591-1.059,1.422,0,.59.292.946.808.946C287.146,237.494,287.591,236.9,287.591,236.073Z" transform="translate(-279.057 -233.186)" fill="#263238"/>
        <path id="Path_3737" data-name="Path 3737" d="M294.427,232.807l-.757,4.708H293.2l.067-.413a1.219,1.219,0,0,1-.957.45c-.69,0-1.2-.546-1.2-1.453,0-1.155.655-1.979,1.534-1.979a.993.993,0,0,1,.982.609l.307-1.923Zm-.951,2.791c0-.6-.292-.946-.808-.946-.609,0-1.059.591-1.059,1.422,0,.59.291.946.808.946C293.031,237.02,293.476,236.43,293.476,235.6Z" transform="translate(-281.458 -232.712)" fill="#263238"/>
        <path id="Path_3738" data-name="Path 3738" d="M297.544,234.118h.491l-.536,3.363h-.491Zm.082-1.015a.384.384,0,0,1,.353-.425.335.335,0,0,1,.312.356c0,.26-.149.438-.358.438A.336.336,0,0,1,297.626,233.1Z" transform="translate(-283.862 -232.677)" fill="#263238"/>
        <path id="Path_3739" data-name="Path 3739" d="M302.319,235.711a2.7,2.7,0,0,1-.031.393l-.3,1.885H301.5l.3-1.885a1.91,1.91,0,0,0,.026-.279c0-.437-.2-.685-.629-.685-.527,0-.885.349-1,1.073l-.286,1.777h-.491l.536-3.363h.471l-.066.431a1.2,1.2,0,0,1,.982-.462C301.951,234.6,302.319,234.995,302.319,235.711Z" transform="translate(-284.845 -233.186)" fill="#263238"/>
        <path id="Path_3740" data-name="Path 3740" d="M308.312,234.627l-.465,2.906c-.194,1.218-.721,1.726-1.621,1.726a1.668,1.668,0,0,1-1.237-.476l.271-.47a1.333,1.333,0,0,0,1,.406c.639,0,.961-.361,1.079-1.092l.041-.241a1.245,1.245,0,0,1-.982.463,1.214,1.214,0,0,1-1.207-1.37,1.689,1.689,0,0,1,1.544-1.884,1.027,1.027,0,0,1,1.012.647l.1-.615ZM307.56,236a.772.772,0,0,0-.808-.87c-.619,0-1.064.553-1.064,1.314a.777.777,0,0,0,.808.877C307.115,237.317,307.56,236.765,307.56,236Z" transform="translate(-287.118 -233.186)" fill="#263238"/>
        <path id="Path_3741" data-name="Path 3741" d="M313.307,238.547c0-.273.163-.464.363-.464.184,0,.322.171.322.412a.409.409,0,0,1-.358.457A.368.368,0,0,1,313.307,238.547Z" transform="translate(-290.512 -234.111)" fill="#263238"/>
        <path id="Path_3742" data-name="Path 3742" d="M315.265,238.547c0-.273.164-.464.364-.464.184,0,.321.171.321.412a.409.409,0,0,1-.358.457A.368.368,0,0,1,315.265,238.547Z" transform="translate(-291.311 -234.111)" fill="#263238"/>
        <path id="Path_3743" data-name="Path 3743" d="M317.224,238.547c0-.273.163-.464.363-.464.184,0,.322.171.322.412a.409.409,0,0,1-.358.457A.368.368,0,0,1,317.224,238.547Z" transform="translate(-292.11 -234.111)" fill="#263238"/>
      </g>
      <g id="Group_8463" data-name="Group 8463" transform="translate(5.398 7.045)">
        <path id="Path_3744" data-name="Path 3744" d="M145.792,88.768a1.671,1.671,0,1,1-1.633-2.026A1.862,1.862,0,0,1,145.792,88.768Z" transform="translate(-142.526 -86.742)" fill="#263238"/>
      </g>
      <g id="Group_8464" data-name="Group 8464" transform="translate(12.338 7.045)">
        <path id="Path_3745" data-name="Path 3745" d="M157.513,88.768a1.671,1.671,0,1,1-1.633-2.026A1.862,1.862,0,0,1,157.513,88.768Z" transform="translate(-154.247 -86.742)" fill="#263238"/>
      </g>
      <g id="Group_8465" data-name="Group 8465" transform="translate(19.277 7.045)">
        <path id="Path_3746" data-name="Path 3746" d="M169.233,88.768a1.671,1.671,0,1,1-1.632-2.026A1.861,1.861,0,0,1,169.233,88.768Z" transform="translate(-165.968 -86.742)" fill="#263238"/>
      </g>
    </g>
  </g>
  <g id="Character" transform="translate(169.168 0)">
    <g id="Group_8606" data-name="Group 8606" transform="translate(0 0)">
      <g id="Group_8481" data-name="Group 8481">
        <g id="Group_8470" data-name="Group 8470">
          <g id="Group_8467" data-name="Group 8467" transform="translate(0.154 0.153)">
            <ellipse id="Ellipse_5" data-name="Ellipse 5" cx="77.751" cy="96.487" rx="77.751" ry="96.487" fill="#f5f5f5"/>
          </g>
          <g id="Group_8469" data-name="Group 8469">
            <g id="Group_8468" data-name="Group 8468">
              <path id="Path_3747" data-name="Path 3747" d="M494.79,147.866s-.021-.53-.048-1.564q-.019-.778-.047-1.926c-.015-.766-.031-1.656-.111-2.661q-.1-1.51-.214-3.373c-.1-1.239-.262-2.587-.409-4.051-.331-2.922-.844-6.269-1.58-9.991a112.786,112.786,0,0,0-3.185-12.115A103.878,103.878,0,0,0,483.79,98.6a94.007,94.007,0,0,0-19.731-27.394A74.834,74.834,0,0,0,449.224,60.2a65.676,65.676,0,0,0-17.855-7,62.584,62.584,0,0,0-20.016-1.372,63.373,63.373,0,0,0-10.4,1.8,70.8,70.8,0,0,0-10.378,3.671,75.518,75.518,0,0,0-10.1,5.6,81.787,81.787,0,0,0-9.562,7.514,93.534,93.534,0,0,0-8.758,9.36,98.67,98.67,0,0,0-13.994,23.743c-.446,1.123-.951,2.213-1.352,3.367q-.626,1.718-1.254,3.443c-.749,2.345-1.523,4.69-2.141,7.116a112.852,112.852,0,0,0-2.956,14.9,119.005,119.005,0,0,0,0,31,113.045,113.045,0,0,0,2.954,14.9l.492,1.805.246.9.281.885q.561,1.768,1.122,3.528l1.254,3.444c.4,1.156.905,2.245,1.352,3.368a98.625,98.625,0,0,0,14,23.751,93.422,93.422,0,0,0,8.759,9.363,81.811,81.811,0,0,0,9.563,7.515,75.5,75.5,0,0,0,10.1,5.6,70.907,70.907,0,0,0,10.379,3.672,63.452,63.452,0,0,0,10.4,1.8,62.576,62.576,0,0,0,20.018-1.373,65.684,65.684,0,0,0,17.856-7,74.793,74.793,0,0,0,14.833-11.008,93.981,93.981,0,0,0,19.729-27.395,103.8,103.8,0,0,0,5.406-13.583,112.621,112.621,0,0,0,3.185-12.114c.736-3.721,1.249-7.068,1.58-9.989.146-1.464.307-2.812.409-4.051q.118-1.861.214-3.372c.079-1.005.1-1.894.11-2.66s.034-1.408.047-1.926c.027-1.035.048-1.564.048-1.564s0,.53-.016,1.564q-.013.779-.032,1.928c-.01.767-.021,1.657-.1,2.663s-.126,2.134-.2,3.377c-.1,1.24-.252,2.591-.394,4.057-.322,2.926-.827,6.28-1.554,10.01a112.478,112.478,0,0,1-3.165,12.145,103.786,103.786,0,0,1-5.395,13.625,94.153,94.153,0,0,1-19.745,27.5A74.98,74.98,0,0,1,449.328,235.8a65.861,65.861,0,0,1-17.907,7.043,62.767,62.767,0,0,1-20.084,1.4,63.509,63.509,0,0,1-10.442-1.8,71.084,71.084,0,0,1-10.419-3.678,75.662,75.662,0,0,1-10.139-5.619,82,82,0,0,1-9.6-7.538,93.8,93.8,0,0,1-8.795-9.395,98.987,98.987,0,0,1-14.055-23.839c-.448-1.127-.956-2.222-1.358-3.382q-.628-1.725-1.259-3.456l-1.127-3.542-.281-.888-.247-.9-.494-1.813a113.409,113.409,0,0,1-2.967-14.963,119.416,119.416,0,0,1,0-31.124,113.222,113.222,0,0,1,2.969-14.958c.62-2.436,1.4-4.79,2.15-7.144l1.259-3.455c.4-1.159.909-2.254,1.358-3.38a99.031,99.031,0,0,1,14.054-23.832,93.826,93.826,0,0,1,8.794-9.392,82.1,82.1,0,0,1,9.6-7.537,75.683,75.683,0,0,1,10.138-5.618A71.084,71.084,0,0,1,400.893,53.3a63.581,63.581,0,0,1,10.441-1.8,62.719,62.719,0,0,1,20.083,1.4,65.867,65.867,0,0,1,17.907,7.041A75.013,75.013,0,0,1,464.19,70.991a94.171,94.171,0,0,1,19.747,27.5,103.849,103.849,0,0,1,5.4,13.626,112.368,112.368,0,0,1,3.166,12.146c.728,3.731,1.232,7.085,1.554,10.011.142,1.467.3,2.817.394,4.058q.11,1.864.2,3.378c.074,1.006.086,1.9.1,2.663s.023,1.409.032,1.928C494.789,147.337,494.79,147.866,494.79,147.866Z" transform="translate(-339.134 -51.226)" fill="#263238"/>
            </g>
          </g>
        </g>
        <g id="Group_8478" data-name="Group 8478" transform="translate(7.354 7.233)">
          <g id="Group_8477" data-name="Group 8477" clip-path="url(#clip-path)">
            <g id="Group_8471" data-name="Group 8471">
              <path id="Path_3748" data-name="Path 3748" d="M390.954,184.16c-7.053-9.277-11.385-21.776-11.385-35.538,0-28.612,18.691-51.808,41.747-51.808s41.747,23.2,41.747,51.808c0,14.32-4.682,27.282-12.249,36.66l21.005,25.454c12.867-15.86,20.837-37.829,20.837-62.114,0-48.354-31.587-87.552-70.551-87.552s-70.551,39.2-70.551,87.552c0,23.876,7.711,45.509,20.2,61.3Z" transform="translate(-351.555 -61.07)" fill="#e8505b"/>
            </g>
            <g id="Group_8472" data-name="Group 8472" transform="translate(92.081 87.102)" opacity="0.8">
              <path id="Path_3749" data-name="Path 3749" d="M522.474,179.621h37.945s-3.837,38.331-4.6,39.046S532.6,251.523,532.6,251.523l-25.516-37.617Z" transform="translate(-507.084 -179.621)" fill="#120409"/>
            </g>
            <g id="Group_8473" data-name="Group 8473" transform="translate(97.235 22.69)" opacity="0.7">
              <path id="Path_3750" data-name="Path 3750" d="M515.788,124.657l26.854-32.7,18.9,35,2.52,29.411-37.582,0-6.845-18.7Z" transform="translate(-515.788 -91.953)" fill="#2e0a17"/>
            </g>
            <g id="Group_8474" data-name="Group 8474" transform="translate(72 -3.608)" opacity="0.5">
              <path id="Path_3751" data-name="Path 3751" d="M473.371,103.3c-.46-.953,0-47.141,0-47.141l23.138,3.608L525,82.587l-27.369,33.332-17.233-3.1Z" transform="translate(-473.167 -56.159)" fill="#641633"/>
            </g>
            <g id="Group_8475" data-name="Group 8475" transform="translate(17.093 -3.608)" opacity="0.3">
              <path id="Path_3752" data-name="Path 3752" d="M380.425,84.253c.576.238,25.516,33.332,25.516,33.332L428.2,106.633l7.137-11.047.2-39.427-26.526,3.608Z" transform="translate(-380.425 -56.159)" fill="#851d44"/>
            </g>
            <g id="Group_8476" data-name="Group 8476" transform="translate(-2.502 26.647)" opacity="0.1">
              <path id="Path_3753" data-name="Path 3753" d="M347.329,157.793c.575.476,42.207,0,42.207,0l-.734-34-20.1-26.454L355,117.557Z" transform="translate(-347.329 -97.338)" fill="#bd2a60"/>
            </g>
          </g>
        </g>
        <g id="Group_8479" data-name="Group 8479" transform="translate(62.496 76.537)">
          <ellipse id="Ellipse_6" data-name="Ellipse 6" cx="16.2" cy="20.104" rx="16.2" ry="20.104" fill="#e0e0e0"/>
        </g>
        <g id="Group_8480" data-name="Group 8480" transform="translate(73.738 82.03)">
          <path id="Path_3755" data-name="Path 3755" d="M463.867,178.826h0c.708,3.009,3.24,4.746,5.671,3.89l56.336-19.843-58.141,8.686C464.912,171.98,463.071,175.442,463.867,178.826Z" transform="translate(-463.681 -162.873)" fill="#455a64"/>
        </g>
      </g>
      <g id="Group_8482" data-name="Group 8482" transform="translate(48.666 140.122)">
        <path id="Path_3756" data-name="Path 3756" d="M442.713,241.939l-3.1,19.51H435.5l1.617-10.285-5.233,8.361h-1.954l-2.852-8.361-1.663,10.285h-4.087l3.144-19.51h3.616l3.683,11.288,7.142-11.288Z" transform="translate(-421.333 -241.939)" fill="#263238"/>
        <path id="Path_3757" data-name="Path 3757" d="M472.75,247.842l-2.426,15.106h-4.043l.247-1.422A4.512,4.512,0,0,1,463,263.2c-2.627,0-5.143-2.481-5.143-6.884,0-5.017,2.964-8.723,6.6-8.723a3.892,3.892,0,0,1,3.728,2.063l.292-1.812Zm-5.368,6.884c0-1.756-.853-2.9-2.313-2.9-1.684,0-2.9,1.7-2.9,4.236,0,1.756.854,2.871,2.313,2.871C466.192,258.934,467.383,257.234,467.383,254.726Z" transform="translate(-436.234 -243.438)" fill="#263238"/>
        <path id="Path_3758" data-name="Path 3758" d="M491.666,255.541l3.3,7.5h-4.536l-1.662-3.958-2.942,3.958H481l6.086-7.748-3.212-7.358h4.469l1.617,3.846,2.9-3.846h4.694Z" transform="translate(-445.673 -243.529)" fill="#263238"/>
        <path id="Path_3759" data-name="Path 3759" d="M506.488,263.671c0-2.034,1.236-3.372,2.74-3.372,1.438,0,2.4,1.17,2.4,2.9,0,2.034-1.258,3.372-2.717,3.372C507.5,266.57,506.488,265.343,506.488,263.671Z" transform="translate(-456.072 -246.809)" fill="#263238"/>
      </g>
      <g id="Group_8483" data-name="Group 8483" transform="translate(68.479 163.417)">
        <path id="Path_3760" data-name="Path 3760" d="M457.181,284.45h4.908l-.238,1.514H454.8l.2-1.183,4.781-4.75c1.317-1.322,1.71-2.123,1.71-3.115,0-1.061-.6-1.757-1.921-1.757a3.215,3.215,0,0,0-2.538,1.357l-.94-1.009a4.511,4.511,0,0,1,3.673-1.862,2.875,2.875,0,0,1,3.127,3.045c0,1.409-.491,2.627-2.173,4.28Z" transform="translate(-454.797 -273.645)" fill="#263238"/>
        <path id="Path_3761" data-name="Path 3761" d="M472.318,275.348l-.813,3.341h.953c2.509,0,3.645,1.287,3.645,3.253a3.963,3.963,0,0,1-4.178,4.211,4.138,4.138,0,0,1-3.435-1.531l.743-1.339a3.355,3.355,0,0,0,2.79,1.322,2.361,2.361,0,0,0,2.678-2.472c0-1.2-.7-1.931-2.5-1.931h-2.383l1.528-6.369h5.538l-.239,1.514Z" transform="translate(-460.383 -273.695)" fill="#263238"/>
        <path id="Path_3762" data-name="Path 3762" d="M483.673,281.631c0-4.228,1.921-7.986,4.963-7.986,2.062,0,3.309,1.653,3.309,4.472,0,4.228-1.934,7.987-4.949,7.987C484.921,286.1,483.673,284.45,483.673,281.631Zm6.87-3.48c0-1.932-.757-2.959-2.019-2.959-2.215,0-3.449,3.568-3.449,6.4,0,1.932.757,2.959,2.033,2.959C489.309,284.555,490.543,280.988,490.543,278.152Z" transform="translate(-466.577 -273.645)" fill="#263238"/>
      </g>
      <g id="Group_8490" data-name="Group 8490" transform="translate(162.698 286.99)">
        <g id="Group_8484" data-name="Group 8484">
          <path id="Path_3763" data-name="Path 3763" d="M613.938,450.418l2.516,5.045,6.411-9.189-3.377-4.439Z" transform="translate(-613.938 -441.835)" fill="#e8505b"/>
        </g>
        <g id="Group_8486" data-name="Group 8486" transform="translate(1.804 3.497)">
          <g id="Group_8485" data-name="Group 8485">
            <path id="Path_3764" data-name="Path 3764" d="M623.539,446.6a7.729,7.729,0,0,1-.862,1.417c-.567.838-1.381,1.964-2.3,3.184l-2.364,3.1a7.851,7.851,0,0,1-1.028,1.231,7.828,7.828,0,0,1,.866-1.413c.568-.837,1.383-1.961,2.3-3.181l2.361-3.1A8.008,8.008,0,0,1,623.539,446.6Z" transform="translate(-616.986 -446.595)" fill="#263238"/>
          </g>
        </g>
        <g id="Group_8488" data-name="Group 8488" transform="translate(2.456 3.97)">
          <g id="Group_8487" data-name="Group 8487">
            <path id="Path_3765" data-name="Path 3765" d="M618.091,447.243a7.527,7.527,0,0,1,1.572,1.663,8.492,8.492,0,0,1,1.355,1.937,7.545,7.545,0,0,1-1.573-1.663A8.478,8.478,0,0,1,618.091,447.243Z" transform="translate(-618.087 -447.238)" fill="#263238"/>
          </g>
        </g>
        <g id="Group_8489" data-name="Group 8489" transform="translate(1.748 3.599)" opacity="0.6">
          <path id="Path_3766" data-name="Path 3766" d="M617.659,456.763l6.411-9.189-.639-.84-6.539,8.915.684,1.025" transform="translate(-616.891 -446.733)" fill="#fff"/>
        </g>
      </g>
      <g id="Group_8558" data-name="Group 8558" transform="translate(105.298 306.374)">
        <g id="Group_8557" data-name="Group 8557">
          <g id="Group_8497" data-name="Group 8497" transform="translate(0.03)">
            <g id="Group_8493" data-name="Group 8493">
              <g id="Group_8492" data-name="Group 8492">
                <g id="Group_8491" data-name="Group 8491">
                  <path id="Path_3767" data-name="Path 3767" d="M523.869,469.458l.017-1.24,10.118.1-.018,4.087-.625.042c-2.781.158-14.148.579-16-.085C515.293,471.62,523.869,469.458,523.869,469.458Z" transform="translate(-517.038 -468.218)" fill="#e8505b"/>
                </g>
              </g>
            </g>
            <g id="Group_8496" data-name="Group 8496" transform="translate(13.296 0.757)" opacity="0.6">
              <g id="Group_8495" data-name="Group 8495">
                <g id="Group_8494" data-name="Group 8494">
                  <path id="Path_3768" data-name="Path 3768" d="M539.495,472.56a4.186,4.186,0,0,1,1.305-2.469,3.1,3.1,0,0,1,2.361-.828l-.024,3.248Z" transform="translate(-539.495 -469.248)" fill="#fff"/>
                </g>
              </g>
            </g>
          </g>
          <g id="Group_8500" data-name="Group 8500" transform="translate(0 2.469)" opacity="0.6">
            <g id="Group_8499" data-name="Group 8499">
              <g id="Group_8498" data-name="Group 8498">
                <path id="Path_3769" data-name="Path 3769" d="M519.657,471.578s-3.008.977-2.638,1.549,11.87.647,16.946.167l-.014-.26-13.415.046S520.243,471.61,519.657,471.578Z" transform="translate(-516.987 -471.578)" fill="#fff"/>
              </g>
            </g>
          </g>
          <g id="Group_8504" data-name="Group 8504" transform="translate(0.03 3.818)">
            <g id="Group_8503" data-name="Group 8503">
              <g id="Group_8502" data-name="Group 8502">
                <g id="Group_8501" data-name="Group 8501">
                  <path id="Path_3770" data-name="Path 3770" d="M534.129,473.516a.8.8,0,0,1-.174.021l-.5.032-1.831.079c-1.547.054-3.684.1-6.045.084s-4.5-.079-6.044-.151l-1.83-.1-.5-.037a.8.8,0,0,1-.173-.023.868.868,0,0,1,.174-.006l.5.011,1.831.054c1.546.046,3.682.1,6.043.109s4.5-.014,6.042-.043l1.831-.035.5-.005A.866.866,0,0,1,534.129,473.516Z" transform="translate(-517.037 -473.415)" fill="#263238"/>
                </g>
              </g>
            </g>
          </g>
          <g id="Group_8508" data-name="Group 8508" transform="translate(2.597 2.325)">
            <g id="Group_8507" data-name="Group 8507">
              <g id="Group_8506" data-name="Group 8506">
                <g id="Group_8505" data-name="Group 8505">
                  <path id="Path_3771" data-name="Path 3771" d="M522.326,473.209a5.228,5.228,0,0,0-.335-1.01,4.588,4.588,0,0,0-.618-.813,1.41,1.41,0,0,1,.723.74A1.766,1.766,0,0,1,522.326,473.209Z" transform="translate(-521.373 -471.382)" fill="#263238"/>
                </g>
              </g>
            </g>
          </g>
          <g id="Group_8512" data-name="Group 8512" transform="translate(6.005 1.459)">
            <g id="Group_8511" data-name="Group 8511">
              <g id="Group_8510" data-name="Group 8510">
                <g id="Group_8509" data-name="Group 8509">
                  <path id="Path_3772" data-name="Path 3772" d="M527.659,471.176c-.028.021-.169-.18-.314-.448a1.329,1.329,0,0,1-.211-.522c.028-.021.169.18.314.447A1.313,1.313,0,0,1,527.659,471.176Z" transform="translate(-527.13 -470.204)" fill="#263238"/>
                </g>
              </g>
            </g>
          </g>
          <g id="Group_8516" data-name="Group 8516" transform="translate(6.728 1.279)">
            <g id="Group_8515" data-name="Group 8515">
              <g id="Group_8514" data-name="Group 8514">
                <g id="Group_8513" data-name="Group 8513">
                  <path id="Path_3773" data-name="Path 3773" d="M528.977,470.619c-.022.029-.181-.095-.353-.276s-.293-.351-.271-.38.181.094.353.276S529,470.59,528.977,470.619Z" transform="translate(-528.35 -469.959)" fill="#263238"/>
                </g>
              </g>
            </g>
          </g>
          <g id="Group_8520" data-name="Group 8520" transform="translate(6.825 0.778)">
            <g id="Group_8519" data-name="Group 8519">
              <g id="Group_8518" data-name="Group 8518">
                <g id="Group_8517" data-name="Group 8517">
                  <path id="Path_3774" data-name="Path 3774" d="M529.568,469.344c0,.039-.236.072-.526.074s-.526-.028-.526-.067.236-.072.526-.074S529.568,469.3,529.568,469.344Z" transform="translate(-528.515 -469.277)" fill="#263238"/>
                </g>
              </g>
            </g>
          </g>
          <g id="Group_8524" data-name="Group 8524" transform="translate(6.868 0.061)">
            <g id="Group_8523" data-name="Group 8523">
              <g id="Group_8522" data-name="Group 8522">
                <g id="Group_8521" data-name="Group 8521">
                  <path id="Path_3775" data-name="Path 3775" d="M529.78,468.313a.939.939,0,0,1-.588.193.908.908,0,0,1-.605-.1,37.3,37.3,0,0,0,1.193-.1Z" transform="translate(-528.587 -468.301)" fill="#263238"/>
                </g>
              </g>
            </g>
          </g>
          <g id="Group_8528" data-name="Group 8528" transform="translate(4.308 0.362)">
            <g id="Group_8527" data-name="Group 8527">
              <g id="Group_8526" data-name="Group 8526">
                <g id="Group_8525" data-name="Group 8525">
                  <path id="Path_3776" data-name="Path 3776" d="M526.156,469.764a1.612,1.612,0,0,1-.647-.009,3.348,3.348,0,0,1-.688-.18,1.726,1.726,0,0,1-.392-.19.4.4,0,0,1-.159-.233.318.318,0,0,1,.1-.3,1.094,1.094,0,0,1,1.465.41,1.436,1.436,0,0,1,.207.5.483.483,0,0,1,.015.2,2.268,2.268,0,0,0-.29-.639,1.169,1.169,0,0,0-.55-.418.884.884,0,0,0-.772.056c-.1.087-.064.227.05.306a1.771,1.771,0,0,0,.362.182,3.9,3.9,0,0,0,.665.2C525.909,469.739,526.156,469.741,526.156,469.764Z" transform="translate(-524.263 -468.71)" fill="#263238"/>
                </g>
              </g>
            </g>
          </g>
          <g id="Group_8532" data-name="Group 8532" transform="translate(5.955 0.01)">
            <g id="Group_8531" data-name="Group 8531">
              <g id="Group_8530" data-name="Group 8530">
                <g id="Group_8529" data-name="Group 8529">
                  <path id="Path_3777" data-name="Path 3777" d="M527.123,469.673a.823.823,0,0,1-.071-.519,1.355,1.355,0,0,1,.181-.544c.116-.165.265-.393.542-.378.15.024.222.22.2.346a.9.9,0,0,1-.112.333,2.272,2.272,0,0,1-.309.45c-.2.227-.366.314-.372.3s.13-.133.31-.369a2.609,2.609,0,0,0,.275-.446c.09-.157.153-.44-.009-.475-.162-.019-.329.166-.429.314a1.342,1.342,0,0,0-.187.484A3.035,3.035,0,0,0,527.123,469.673Z" transform="translate(-527.045 -468.231)" fill="#263238"/>
                </g>
              </g>
            </g>
          </g>
          <g id="Group_8536" data-name="Group 8536" transform="translate(13.336 0.656)">
            <g id="Group_8535" data-name="Group 8535">
              <g id="Group_8534" data-name="Group 8534">
                <g id="Group_8533" data-name="Group 8533">
                  <path id="Path_3778" data-name="Path 3778" d="M543.115,469.193c0,.026-.288-.033-.744.026a3.033,3.033,0,0,0-1.629.762,3.8,3.8,0,0,0-1.027,1.647c-.158.5-.175.833-.2.829a.776.776,0,0,1,0-.234,3.411,3.411,0,0,1,.114-.626,3.674,3.674,0,0,1,1.033-1.727,2.885,2.885,0,0,1,1.7-.75,2.286,2.286,0,0,1,.554.02A.532.532,0,0,1,543.115,469.193Z" transform="translate(-539.511 -469.111)" fill="#263238"/>
                </g>
              </g>
            </g>
          </g>
          <g id="Group_8540" data-name="Group 8540" transform="translate(9.124 2.912)">
            <g id="Group_8539" data-name="Group 8539">
              <g id="Group_8538" data-name="Group 8538">
                <g id="Group_8537" data-name="Group 8537">
                  <path id="Path_3779" data-name="Path 3779" d="M535.341,472.2a7.162,7.162,0,0,1-2.944.013c0-.04.661.01,1.472.005S535.337,472.155,535.341,472.2Z" transform="translate(-532.397 -472.181)" fill="#263238"/>
                </g>
              </g>
            </g>
          </g>
          <g id="Group_8544" data-name="Group 8544" transform="translate(13.749 2.931)">
            <g id="Group_8543" data-name="Group 8543">
              <g id="Group_8542" data-name="Group 8542">
                <g id="Group_8541" data-name="Group 8541">
                  <path id="Path_3780" data-name="Path 3780" d="M540.5,472.212c.024.029-.055.16-.123.334s-.107.328-.141.325-.05-.184.031-.384S540.48,472.184,540.5,472.212Z" transform="translate(-540.21 -472.208)" fill="#263238"/>
                </g>
              </g>
            </g>
          </g>
          <g id="Group_8548" data-name="Group 8548" transform="translate(14.408 1.867)">
            <g id="Group_8547" data-name="Group 8547">
              <g id="Group_8546" data-name="Group 8546">
                <g id="Group_8545" data-name="Group 8545">
                  <path id="Path_3781" data-name="Path 3781" d="M541.707,470.764c.024.028-.042.148-.147.27s-.21.2-.234.17.042-.148.147-.27S541.684,470.737,541.707,470.764Z" transform="translate(-541.322 -470.759)" fill="#263238"/>
                </g>
              </g>
            </g>
          </g>
          <g id="Group_8552" data-name="Group 8552" transform="translate(15.285 1.324)">
            <g id="Group_8551" data-name="Group 8551">
              <g id="Group_8550" data-name="Group 8550">
                <g id="Group_8549" data-name="Group 8549">
                  <path id="Path_3782" data-name="Path 3782" d="M543.381,470.087c-.008.04-.142.037-.289.1s-.256.149-.282.123.059-.187.244-.256S543.391,470.051,543.381,470.087Z" transform="translate(-542.804 -470.02)" fill="#263238"/>
                </g>
              </g>
            </g>
          </g>
          <g id="Group_8556" data-name="Group 8556" transform="translate(16.316 1.139)">
            <g id="Group_8555" data-name="Group 8555">
              <g id="Group_8554" data-name="Group 8554">
                <g id="Group_8553" data-name="Group 8553">
                  <path id="Path_3783" data-name="Path 3783" d="M544.85,469.8c.012.036-.046.1-.13.132s-.161.037-.174,0,.047-.1.13-.132S544.838,469.758,544.85,469.8Z" transform="translate(-544.544 -469.768)" fill="#263238"/>
                </g>
              </g>
            </g>
          </g>
        </g>
      </g>
      <g id="Group_8559" data-name="Group 8559" transform="translate(83.159 86.141)">
        <path id="Path_3784" data-name="Path 3784" d="M504.436,226.755l-15.629-19.649,1.985-25.589.358-.508c.194-.28.414-.586.672-.922a4.076,4.076,0,0,1,1.034-.954,5.36,5.36,0,0,1,1.494-.735.651.651,0,0,0,.26-1.109c-.391-.256-1.741-.058-3.089,1s-.531-1.849-.248-2.914,1.032-4.406.835-4.765c-.289-.525-.809-.232-1.071.839s-1.232,4.22-1.681,4.023,1.056-5.593,1.056-5.593.472-1.095-.041-1.344c-.924-.45-2.175,5.423-2.282,5.985-.075.392-.57.2-.471-.217s1.6-5.345.659-5.815c-.719-.36-1.065,4.821-1.835,5.643s.588-3.905-.111-4.215c-.26-.115-.468-.156-.93,2.688-.224,1.38-.712,3.681-.893,5.933h0l-4.913,30.576,15.379,25.267Z" transform="translate(-479.592 -168.469)" fill="#ffbe9d"/>
      </g>
      <g id="Group_8560" data-name="Group 8560" transform="translate(108.729 87.167)">
        <path id="Path_3785" data-name="Path 3785" d="M530.02,170.874c-.644.46,1.375,4.808.5,4.171s-1.963-5.657-2.619-5.143c-.854.67,1.326,5.176,1.488,5.574s-.3.686-.432.318c-.187-.529-2.265-6.03-3.109-5.381-.468.359.154,1.331.154,1.331s2.253,4.978,1.846,5.268-1.816-2.576-2.234-3.584-.966-1.169-1.175-.588c-.142.4,1.077,3.518,1.508,4.5s1.655,3.661.177,2.921-2.836-.635-3.183-.3a.624.624,0,0,0,.416,1.034,4.958,4.958,0,0,1,1.577.39,3.653,3.653,0,0,1,1.155.709c.3.273.564.526.795.758l.425.42,8.443,25.829-7.671,22.155,11.888,5.492,5.344-29.3L533.06,178.948l0,0c-.5-2.176-1.315-4.331-1.734-5.639C530.458,170.616,530.259,170.7,530.02,170.874Z" transform="translate(-522.781 -169.865)" fill="#ffbe9d"/>
      </g>
      <g id="Group_8578" data-name="Group 8578" transform="translate(102.679 195.839)">
        <g id="Group_8561" data-name="Group 8561">
          <path id="Path_3786" data-name="Path 3786" d="M552.372,367.073l-7.723-49.3-10.9,1.163,0-.113-19.92,2.237s-.932,56.62-1.263,56.62l5.455,51.613v.01l15.727-.891-6.079-51.378L529.91,335.8l.448-.755,9.1,42.152,30.983,43.514L580.534,408.6Z" transform="translate(-512.563 -317.773)" fill="#455a64"/>
        </g>
        <g id="Group_8563" data-name="Group 8563" transform="translate(15.517 11.808)">
          <g id="Group_8562" data-name="Group 8562">
            <path id="Path_3787" data-name="Path 3787" d="M538.783,373.507a2.154,2.154,0,0,1-.009-.422c.009-.318.021-.717.035-1.206.046-1.1.11-2.6.187-4.427.19-3.784.448-8.921.733-14.6.29-5.153.554-9.861.756-13.459l0-.047.024-.035,2.729-4.024.758-1.084a2.186,2.186,0,0,1,.282-.361,2.351,2.351,0,0,1-.23.414l-.71,1.134-2.65,4.1.026-.082c-.182,3.6-.42,8.31-.68,13.465-.32,5.674-.61,10.809-.824,14.591-.118,1.826-.214,3.323-.285,4.419-.038.486-.069.884-.093,1.2A2.15,2.15,0,0,1,538.783,373.507Z" transform="translate(-538.772 -333.844)" fill="#263238"/>
          </g>
        </g>
        <g id="Group_8565" data-name="Group 8565" transform="translate(21.029 1.05)">
          <g id="Group_8564" data-name="Group 8564">
            <path id="Path_3788" data-name="Path 3788" d="M548.236,319.2a72.3,72.3,0,0,1,0,9.429,71.984,71.984,0,0,1,0-9.429Z" transform="translate(-548.081 -319.202)" fill="#263238"/>
          </g>
        </g>
        <g id="Group_8567" data-name="Group 8567" transform="translate(7.627 4.295)">
          <g id="Group_8566" data-name="Group 8566">
            <path id="Path_3789" data-name="Path 3789" d="M525.57,324.66a2.212,2.212,0,0,1,.491-.1l1.453-.218c1.259-.18,3.076-.432,5.258-.706l.148-.018v.187c.005,2.317.012,4.989.018,7.827v.118l-.086.053-.113.069-3.8,2.32-.072.043-.067-.05-3.292-2.421-.063-.046v-.087c.026-2.093.047-3.834.064-5.122l.032-1.386a2.64,2.64,0,0,1,.028-.464,4.291,4.291,0,0,1,.028.522c.009.377.019.847.032,1.419.016,1.264.038,2.976.064,5.031l-.062-.133,3.314,2.373-.139-.006,3.8-2.337.113-.069-.086.172c.007-2.838.013-5.51.018-7.827l.149.168c-2.127.236-3.917.412-5.188.531l-1.488.131A3.4,3.4,0,0,1,525.57,324.66Z" transform="translate(-525.445 -323.619)" fill="#263238"/>
          </g>
        </g>
        <g id="Group_8569" data-name="Group 8569" transform="translate(22.962 2.418)">
          <g id="Group_8568" data-name="Group 8568">
            <path id="Path_3790" data-name="Path 3790" d="M551.473,322.105a2.2,2.2,0,0,1,.491-.1l1.453-.217c1.259-.18,3.076-.432,5.257-.706l.149-.018v.187c.005,2.317.012,4.989.018,7.827v.118l-.086.053-.113.069-3.8,2.32-.072.043-.067-.05-3.292-2.421-.063-.046v-.087c.026-2.093.047-3.835.063-5.122l.033-1.386a2.622,2.622,0,0,1,.028-.464,4.333,4.333,0,0,1,.028.522c.008.377.019.847.032,1.419.016,1.264.038,2.976.064,5.031l-.062-.134,3.314,2.374-.139-.006,3.8-2.337.113-.069-.086.172c.007-2.838.013-5.51.018-7.827l.149.168c-2.127.236-3.917.411-5.189.531l-1.488.131A3.385,3.385,0,0,1,551.473,322.105Z" transform="translate(-551.347 -321.064)" fill="#263238"/>
          </g>
        </g>
        <g id="Group_8571" data-name="Group 8571" transform="translate(7.752 6.339)">
          <g id="Group_8570" data-name="Group 8570">
            <path id="Path_3791" data-name="Path 3791" d="M533.013,326.474a35.607,35.607,0,0,1-7.357.422,35.62,35.62,0,0,1,7.357-.422Z" transform="translate(-525.656 -326.401)" fill="#263238"/>
          </g>
        </g>
        <g id="Group_8573" data-name="Group 8573" transform="translate(23.087 4.628)">
          <g id="Group_8572" data-name="Group 8572">
            <path id="Path_3792" data-name="Path 3792" d="M558.773,324.122a17.463,17.463,0,0,1-3.6.531,17.226,17.226,0,0,1-3.619.149,17.537,17.537,0,0,1,3.6-.531A17.28,17.28,0,0,1,558.773,324.122Z" transform="translate(-551.557 -324.072)" fill="#263238"/>
          </g>
        </g>
        <g id="Group_8575" data-name="Group 8575" transform="translate(6.706 58.788)">
          <g id="Group_8574" data-name="Group 8574">
            <path id="Path_3793" data-name="Path 3793" d="M531.043,397.819a17.508,17.508,0,0,1-3.557.733,17.108,17.108,0,0,1-3.6.353,17.568,17.568,0,0,1,3.558-.733A17.105,17.105,0,0,1,531.043,397.819Z" transform="translate(-523.89 -397.787)" fill="#263238"/>
          </g>
        </g>
        <g id="Group_8577" data-name="Group 8577" transform="translate(31.698 50.352)">
          <g id="Group_8576" data-name="Group 8576">
            <path id="Path_3794" data-name="Path 3794" d="M573.215,386.314c.031.11-1.7.861-3.661,2.228s-3.39,2.788-3.45,2.7a4.584,4.584,0,0,1,.88-1.025,18.294,18.294,0,0,1,2.42-2.007,16.487,16.487,0,0,1,2.646-1.5A3.346,3.346,0,0,1,573.215,386.314Z" transform="translate(-566.103 -386.304)" fill="#263238"/>
          </g>
        </g>
      </g>
      <g id="Group_8583" data-name="Group 8583" transform="translate(43.729 49.916)">
        <g id="Group_8580" data-name="Group 8580">
          <g id="Group_8579" data-name="Group 8579">
            <path id="Path_3795" data-name="Path 3795" d="M477.268,144.745a1.8,1.8,0,0,1-.117-.271c-.078-.2-.182-.467-.315-.81s-.3-.8-.512-1.317l-.77-1.751c-.3-.653-.671-1.347-1.055-2.126-.41-.756-.874-1.565-1.384-2.419A44.665,44.665,0,0,0,469.2,130.7a33.673,33.673,0,0,0-12.99-9.385,25.854,25.854,0,0,0-8.8-1.77,28.761,28.761,0,0,0-9.5,1.417A31.972,31.972,0,0,0,429.1,125.6a33.8,33.8,0,0,0-6.925,6.967,46.053,46.053,0,0,0-7.508,16.161,56.414,56.414,0,0,0-1.251,7.056c-.1,1.057-.179,2.044-.232,2.954-.021.911-.067,1.744-.063,2.494s.024,1.413.034,1.993.064,1.064.084,1.458.039.677.052.9a2.233,2.233,0,0,1,.007.308,2.187,2.187,0,0,1-.038-.3l-.082-.895c-.03-.394-.085-.88-.114-1.458s-.039-1.25-.062-2,.023-1.589.036-2.505c.044-.914.114-1.907.207-2.97a55.681,55.681,0,0,1,1.214-7.108,46.106,46.106,0,0,1,7.509-16.32,34,34,0,0,1,6.976-7.048,32.132,32.132,0,0,1,8.892-4.685,28.864,28.864,0,0,1,9.589-1.422,25.984,25.984,0,0,1,8.875,1.808A33.748,33.748,0,0,1,469.35,130.5a44.261,44.261,0,0,1,3.9,5.417q.76,1.3,1.371,2.45c.378.787.745,1.49,1.035,2.151l.748,1.773c.207.519.354.976.486,1.336l.288.827A2.288,2.288,0,0,1,477.268,144.745Z" transform="translate(-412.994 -119.164)" fill="#263238"/>
          </g>
        </g>
        <g id="Group_8582" data-name="Group 8582" transform="translate(18.613 6.972)">
          <g id="Group_8581" data-name="Group 8581">
            <path id="Path_3796" data-name="Path 3796" d="M483.393,145.252a3.044,3.044,0,0,1-.278-.441c-.18-.289-.41-.747-.76-1.289a35.532,35.532,0,0,0-3.136-4.38,31.119,31.119,0,0,0-5.568-5.23,26.268,26.268,0,0,0-7.913-3.962,23.674,23.674,0,0,0-8.507-.85,24.453,24.453,0,0,0-6.865,1.588,26.684,26.684,0,0,0-4.384,2.176c-.507.29-.878.572-1.143.731a2.235,2.235,0,0,1-.407.24,2.578,2.578,0,0,1,.376-.306c.256-.181.619-.484,1.12-.8a24.454,24.454,0,0,1,4.372-2.3,23.93,23.93,0,0,1,6.912-1.682,23.445,23.445,0,0,1,8.6.829,26.076,26.076,0,0,1,7.986,4.03,30.581,30.581,0,0,1,5.575,5.341,32.615,32.615,0,0,1,3.081,4.485c.336.558.551,1.03.714,1.334A3.33,3.33,0,0,1,483.393,145.252Z" transform="translate(-444.433 -128.654)" fill="#263238"/>
          </g>
        </g>
      </g>
      <g id="Group_8595" data-name="Group 8595" transform="translate(94.058 124.746)">
        <g id="Group_8592" data-name="Group 8592">
          <g id="Group_8585" data-name="Group 8585">
            <g id="Group_8584" data-name="Group 8584">
              <path id="Path_3797" data-name="Path 3797" d="M535.2,255.931l-2.75,17.758a46.272,46.272,0,0,1,6.258,18.4l-30.822,3.287c.575-6,3.555-18.983,3.555-18.983l-4.474-18.959L498,242.945l8.9-9.953c-.17.56,8.343,6.675,8.343,6.675l12.228.129a8.465,8.465,0,0,1,1.757.433l5.974-19.217a32.738,32.738,0,0,1,3.072,18.782c-1.1,7.369-.893,9.091-3.072,16.137" transform="translate(-498.002 -221.012)" fill="#641633"/>
            </g>
          </g>
          <g id="Group_8587" data-name="Group 8587" transform="translate(8.484 21.426)">
            <g id="Group_8586" data-name="Group 8586">
              <path id="Path_3798" data-name="Path 3798" d="M518.693,250.175a2.934,2.934,0,0,1,.451.668,11.727,11.727,0,0,1,.924,2.085,12.254,12.254,0,0,1,.618,3.454,10.576,10.576,0,0,1-.731,4.239,7.174,7.174,0,0,1-2.366,3.188,4.811,4.811,0,0,1-2.757.92,4.08,4.08,0,0,1-1.889-.452,3.045,3.045,0,0,1-.465-.3c-.1-.078-.152-.124-.147-.136a5.179,5.179,0,0,0,2.5.614,4.828,4.828,0,0,0,2.618-.954,7.034,7.034,0,0,0,2.233-3.055,10.4,10.4,0,0,0,.722-4.056,12.666,12.666,0,0,0-.536-3.367A23.13,23.13,0,0,0,518.693,250.175Z" transform="translate(-512.331 -250.174)" fill="#263238"/>
            </g>
          </g>
          <g id="Group_8589" data-name="Group 8589" transform="translate(35.302 21.365)">
            <g id="Group_8588" data-name="Group 8588">
              <path id="Path_3799" data-name="Path 3799" d="M558.469,263.089c-.05-.029.216-.722.476-1.9a17.347,17.347,0,0,0,.353-4.721,16.83,16.83,0,0,0-.953-4.591c-.407-1.114-.758-1.746-.713-1.784.017-.015.118.13.287.409a9.083,9.083,0,0,1,.622,1.257,14.83,14.83,0,0,1,1.064,4.679,15.318,15.318,0,0,1-.452,4.828,9.855,9.855,0,0,1-.454,1.364C558.569,262.937,558.488,263.1,558.469,263.089Z" transform="translate(-557.628 -250.09)" fill="#263238"/>
            </g>
          </g>
          <g id="Group_8591" data-name="Group 8591" transform="translate(20.618 49.864)" opacity="0.3">
            <g id="Group_8590" data-name="Group 8590">
              <path id="Path_3800" data-name="Path 3800" d="M544.223,290.629a1.047,1.047,0,0,0-1.231-.206,7.952,7.952,0,0,1-2.072.529c-1.319.034-2.508-.89-3.725-1.52s-2.77-.911-3.734.206a3.122,3.122,0,0,0-.31,3.273,2.1,2.1,0,0,0,1.285,1.049h0c3.08,1.077,5.728.284,8.743-1.214a2.322,2.322,0,0,0,.988-.772A1.284,1.284,0,0,0,544.223,290.629Z" transform="translate(-532.827 -288.88)"/>
            </g>
          </g>
        </g>
        <g id="Group_8594" data-name="Group 8594" transform="translate(7.463 9.234)" opacity="0.3">
          <g id="Group_8593" data-name="Group 8593">
            <path id="Path_3801" data-name="Path 3801" d="M512.536,236.181a12.065,12.065,0,0,0-1.9,7.148c.2,2.558,1.6,5.042,3.6,5.7,1.372.452,2.871.047,4.216.611,2.483,1.04,3.8,5.067,6.407,5.358,2.362.262,4.079-2.7,6.281-3.787a14.119,14.119,0,0,1,3.606-.862,9.513,9.513,0,0,0,6.43-4.582,9.287,9.287,0,0,0,.176-8.835c-1.626-2.692-4.644-3.35-7.354-3.351a25.8,25.8,0,0,0-11.966,3,7.478,7.478,0,0,0-2.279,1.653,4.276,4.276,0,0,0-1.079,2.895" transform="translate(-510.607 -233.58)"/>
          </g>
        </g>
      </g>
      <g id="Group_8605" data-name="Group 8605" transform="translate(102.019 109.913)">
        <g id="Group_8596" data-name="Group 8596">
          <path id="Path_3802" data-name="Path 3802" d="M548.126,225.46a3.778,3.778,0,0,0-1.917-3.04c-1.189-.562-2.581-.159-3.744-.8-1.45-.8-2.062-2.912-2.427-4.827s-.718-4.03-1.965-5.246c-.861-.84-2.005-1.088-2.938-1.8-1.379-1.057-2.128-2.979-3.071-4.616a8.515,8.515,0,0,0-1.26-1.7c-.02-.03-.036-.065-.056-.094-2-3-7.351-3.392-9.662-.755l.088-.1c-4.309.4-7.043,9.041-7.088,14.515-.028,3.406.858,6.971-.181,10.124-.605,1.834-1.813,3.316-2.275,5.214-.629,2.58.423,5.629,2.362,6.846a4.247,4.247,0,0,0,5.843-1.7,3.319,3.319,0,0,0,1.909,3.084,6.417,6.417,0,0,0,3.328.252c2.392-.243,5.15-.755,6.377-3.315a3.97,3.97,0,0,0,3.921,2.023,10,10,0,0,0,4.215-1.068,2.268,2.268,0,0,1-.155-.3,3.581,3.581,0,0,0,.638-.38,4.027,4.027,0,0,0,1.31-4.249l1.288,1.855c2.234-1.465,3.246-5.255,2.156-8.086a6.293,6.293,0,0,1,2.033,1.68A4.24,4.24,0,0,0,548.126,225.46Z" transform="translate(-511.449 -200.823)" fill="#263238"/>
        </g>
        <g id="Group_8598" data-name="Group 8598" transform="translate(10.144 0.578)">
          <g id="Group_8597" data-name="Group 8597">
            <path id="Path_3803" data-name="Path 3803" d="M554.572,227.94a3.162,3.162,0,0,0-1.526-3.1,5.834,5.834,0,0,0-2.2-.634,7.42,7.42,0,0,1-2.75-.721,3.528,3.528,0,0,1-1.254-1.23,6.684,6.684,0,0,1-.761-1.863c-.371-1.352-.451-2.842-.814-4.262a7.077,7.077,0,0,0-.8-2.006,2.681,2.681,0,0,0-1.491-1.217c-.606-.187-1.255-.171-1.9-.328a2.991,2.991,0,0,1-1.693-1.143,11.735,11.735,0,0,1-1.651-3.921,9.285,9.285,0,0,0-1.6-3.318,6.476,6.476,0,0,0-2.265-1.853,5.272,5.272,0,0,0-3.909-.256,10.541,10.541,0,0,0-1.383.615,1.571,1.571,0,0,1,.327-.249,5.166,5.166,0,0,1,1.024-.51,5.246,5.246,0,0,1,4.017.146,6.575,6.575,0,0,1,2.37,1.883,9.512,9.512,0,0,1,1.68,3.416,11.5,11.5,0,0,0,1.6,3.784,2.7,2.7,0,0,0,1.537,1.032c.6.148,1.252.13,1.912.33a2.994,2.994,0,0,1,1.659,1.355,7.449,7.449,0,0,1,.847,2.127c.373,1.484.444,2.962.8,4.267a4.414,4.414,0,0,0,1.854,2.915,7.411,7.411,0,0,0,2.668.739,5.883,5.883,0,0,1,2.246.71,3.311,3.311,0,0,1,1.276,1.49,3.009,3.009,0,0,1,.259,1.336A1.655,1.655,0,0,1,554.572,227.94Z" transform="translate(-528.583 -201.61)" fill="#455a64"/>
          </g>
        </g>
        <g id="Group_8600" data-name="Group 8600" transform="translate(10.456 1.94)">
          <g id="Group_8599" data-name="Group 8599">
            <path id="Path_3804" data-name="Path 3804" d="M547.22,239.02c-.007-.022.125-.063.327-.239a2.108,2.108,0,0,0,.6-1.074,3.476,3.476,0,0,0-.1-2.039,4.6,4.6,0,0,0-1.565-1.957c-.713-.561-1.59-.982-2.456-1.661a5.136,5.136,0,0,1-1.2-1.306,6.112,6.112,0,0,1-.735-1.893,36.9,36.9,0,0,1-.454-4.383,6.029,6.029,0,0,0-1.57-3.981c-1.021-.9-2.393-1.166-3.309-2.351a8.569,8.569,0,0,1-1.439-4.068c-.188-1.4-.263-2.724-.517-3.915a10,10,0,0,0-1.187-3.054,8.288,8.288,0,0,0-3.1-3.047,15.048,15.048,0,0,0-1.4-.584,1.452,1.452,0,0,1,.382.063,5.741,5.741,0,0,1,1.063.384,8.022,8.022,0,0,1,3.232,3.02,10.141,10.141,0,0,1,1.261,3.137c.272,1.224.357,2.568.55,3.935a8.225,8.225,0,0,0,1.374,3.867c.825,1.082,2.156,1.345,3.273,2.3a4.417,4.417,0,0,1,1.226,1.943,10.461,10.461,0,0,1,.464,2.3,37.925,37.925,0,0,0,.428,4.337,5.773,5.773,0,0,0,.677,1.782,4.874,4.874,0,0,0,1.121,1.245c.828.669,1.708,1.108,2.434,1.7a4.83,4.83,0,0,1,1.6,2.1,3.63,3.63,0,0,1,.061,2.177,2.041,2.041,0,0,1-.678,1.09A.83.83,0,0,1,547.22,239.02Z" transform="translate(-529.109 -203.464)" fill="#455a64"/>
          </g>
        </g>
        <g id="Group_8602" data-name="Group 8602" transform="translate(9.992 2.278)">
          <g id="Group_8601" data-name="Group 8601">
            <path id="Path_3805" data-name="Path 3805" d="M532.6,240.753a2.86,2.86,0,0,0,.39-1.436,5.088,5.088,0,0,0-.3-1.749c-.224-.65-.587-1.334-.9-2.169a5.294,5.294,0,0,1-.25-2.976,18.153,18.153,0,0,1,1.089-3.145,8.773,8.773,0,0,0,.773-3.5,7.085,7.085,0,0,0-1.033-3.624c-.65-1.09-1.459-2.008-2.094-3.076a7.653,7.653,0,0,1-.767-1.716,8.152,8.152,0,0,1-.3-1.843,18.235,18.235,0,0,1,.214-3.417c.143-1.051.287-2.02.338-2.914a8.176,8.176,0,0,0-.63-4.077,5.74,5.74,0,0,0-.8-1.189,1.038,1.038,0,0,1,.273.228,3.628,3.628,0,0,1,.629.881,8.075,8.075,0,0,1,.746,4.174c-.038.914-.172,1.9-.3,2.947a18.193,18.193,0,0,0-.183,3.341,7.726,7.726,0,0,0,.294,1.743,7.3,7.3,0,0,0,.733,1.619c.614,1.027,1.423,1.942,2.1,3.072a7.5,7.5,0,0,1,1.086,3.846,9.126,9.126,0,0,1-.821,3.659,18.215,18.215,0,0,0-1.1,3.064,4.97,4.97,0,0,0,.2,2.791c.288.814.642,1.515.859,2.2a5.144,5.144,0,0,1,.265,1.838,2.644,2.644,0,0,1-.286,1.125A1.032,1.032,0,0,1,532.6,240.753Z" transform="translate(-528.325 -203.923)" fill="#455a64"/>
          </g>
        </g>
        <g id="Group_8604" data-name="Group 8604" transform="translate(3.65 2.2)">
          <g id="Group_8603" data-name="Group 8603">
            <path id="Path_3806" data-name="Path 3806" d="M517.86,240.122a.964.964,0,0,1-.173-.356,2.228,2.228,0,0,1,.013-1.189,3.268,3.268,0,0,1,.9-1.514,13.242,13.242,0,0,0,1.515-1.551,5.682,5.682,0,0,0,.974-2.592,7.354,7.354,0,0,0-.421-3.256,9.115,9.115,0,0,1-.623-3.749,15.37,15.37,0,0,1,1.123-3.861,9.623,9.623,0,0,0,.8-3.807,19.963,19.963,0,0,0-.64-3.649,13.742,13.742,0,0,1-.143-6.405,7.448,7.448,0,0,1,1.931-3.6,4.416,4.416,0,0,1,.808-.631,1.039,1.039,0,0,1,.31-.148,9.3,9.3,0,0,0-1.041.895,7.638,7.638,0,0,0-1.8,3.556,13.6,13.6,0,0,0,.208,6.233,19.893,19.893,0,0,1,.668,3.728,9.987,9.987,0,0,1-.816,3.984,15.213,15.213,0,0,0-1.1,3.745,8.791,8.791,0,0,0,.589,3.581,11.308,11.308,0,0,1,.4,1.72,6.3,6.3,0,0,1,0,1.709,5.9,5.9,0,0,1-1.065,2.724,12.417,12.417,0,0,1-1.568,1.536,3.1,3.1,0,0,0-.9,1.4,2.242,2.242,0,0,0-.067,1.118C517.8,239.995,517.873,240.112,517.86,240.122Z" transform="translate(-517.614 -203.817)" fill="#455a64"/>
          </g>
        </g>
      </g>
    </g>
  </g>
  <g id="Plants" transform="translate(12.534 160.82)">
    <g id="Group_8736" data-name="Group 8736" transform="translate(0)">
      <g id="Group_8724" data-name="Group 8724">
        <g id="Group_8610" data-name="Group 8610" transform="translate(7.561)">
          <g id="Group_8609" data-name="Group 8609">
            <g id="Group_8608" data-name="Group 8608">
              <g id="Group_8607" data-name="Group 8607">
                <path id="Path_3807" data-name="Path 3807" d="M97.8,399.987a2.315,2.315,0,0,1,.109-.325l.351-.929a27.437,27.437,0,0,0,1.031-3.718A40.552,40.552,0,0,0,99.2,380.66a92.037,92.037,0,0,0-2.146-9.642c-.908-3.422-1.963-7.053-2.825-10.979a52.1,52.1,0,0,1-1.394-12.622A59.742,59.742,0,0,1,95.2,334.059a77.825,77.825,0,0,0,2.74-13.155A24.171,24.171,0,0,0,96,308.755c-1.551-3.545-3.5-6.577-4.961-9.718a38.907,38.907,0,0,1-2.982-9.341,42.991,42.991,0,0,1-.189-14.473,31.9,31.9,0,0,1,1.217-5.111,2.365,2.365,0,0,1-.072.339l-.246.98c-.214.861-.493,2.147-.756,3.826a43.558,43.558,0,0,0,.3,14.364,38.728,38.728,0,0,0,2.992,9.224c1.456,3.1,3.416,6.122,5,9.709a24.653,24.653,0,0,1,2,12.4A77.841,77.841,0,0,1,95.554,334.2,59.55,59.55,0,0,0,93.2,347.433a51.833,51.833,0,0,0,1.362,12.494c.847,3.907,1.889,7.538,2.786,10.97a91.04,91.04,0,0,1,2.111,9.7,40.075,40.075,0,0,1-.03,14.463,24.876,24.876,0,0,1-1.1,3.712c-.162.385-.29.686-.385.912A2.046,2.046,0,0,1,97.8,399.987Z" transform="translate(-87.343 -270.111)" fill="#263238"/>
              </g>
            </g>
          </g>
        </g>
        <g id="Group_8618" data-name="Group 8618" transform="translate(12.413 13.243)">
          <g id="Group_8613" data-name="Group 8613">
            <g id="Group_8612" data-name="Group 8612">
              <g id="Group_8611" data-name="Group 8611">
                <path id="Path_3808" data-name="Path 3808" d="M96.362,306.916s-2.964-11.764,2.353-18.652c.187-.242.516-.127.564.2C99.564,290.409,99.918,296.326,96.362,306.916Z" transform="translate(-95.539 -288.135)" fill="#641633"/>
              </g>
            </g>
          </g>
          <g id="Group_8617" data-name="Group 8617" transform="translate(0.717 4.049)">
            <g id="Group_8616" data-name="Group 8616">
              <g id="Group_8615" data-name="Group 8615">
                <g id="Group_8614" data-name="Group 8614">
                  <path id="Path_3809" data-name="Path 3809" d="M98.632,293.646a13.339,13.339,0,0,1-.2,2.17c-.195,1.5-.423,3.25-.676,5.189l-.664,5.189a14.539,14.539,0,0,1-.314,2.147,11.234,11.234,0,0,1,.053-2.187c.1-1.344.289-3.193.558-5.223s.553-3.857.785-5.174A11.7,11.7,0,0,1,98.632,293.646Z" transform="translate(-96.749 -293.646)" fill="#263238"/>
                </g>
              </g>
            </g>
          </g>
        </g>
        <g id="Group_8626" data-name="Group 8626" transform="translate(16.661 44.627)">
          <g id="Group_8621" data-name="Group 8621" transform="translate(0.058)">
            <g id="Group_8620" data-name="Group 8620">
              <g id="Group_8619" data-name="Group 8619">
                <path id="Path_3810" data-name="Path 3810" d="M102.812,345.993s1.813-12.118,9.109-15.121c.256-.105.5.187.422.506C111.862,333.26,109.946,338.7,102.812,345.993Z" transform="translate(-102.812 -330.85)" fill="#e8505b"/>
              </g>
            </g>
          </g>
          <g id="Group_8625" data-name="Group 8625" transform="translate(0 3.15)">
            <g id="Group_8624" data-name="Group 8624">
              <g id="Group_8623" data-name="Group 8623">
                <g id="Group_8622" data-name="Group 8622">
                  <path id="Path_3811" data-name="Path 3811" d="M109.894,335.139a11.342,11.342,0,0,1-.995,1.8l-2.553,4.193-2.542,4.2a11.707,11.707,0,0,1-1.087,1.716,9.994,9.994,0,0,1,.871-1.9c.593-1.131,1.459-2.655,2.462-4.293s1.942-3.089,2.644-4.118A9.214,9.214,0,0,1,109.894,335.139Z" transform="translate(-102.714 -335.138)" fill="#263238"/>
                </g>
              </g>
            </g>
          </g>
        </g>
        <g id="Group_8634" data-name="Group 8634" transform="translate(14.668 72.342)">
          <g id="Group_8629" data-name="Group 8629" transform="translate(0.005)">
            <g id="Group_8628" data-name="Group 8628">
              <g id="Group_8627" data-name="Group 8627">
                <path id="Path_3812" data-name="Path 3812" d="M99.431,386.4s-1.1-12.25,5.178-17.752c.22-.193.526,0,.522.332C105.11,370.956,104.549,376.849,99.431,386.4Z" transform="translate(-99.357 -368.573)" fill="#e8505b"/>
              </g>
            </g>
          </g>
          <g id="Group_8633" data-name="Group 8633" transform="translate(0 3.788)">
            <g id="Group_8632" data-name="Group 8632">
              <g id="Group_8631" data-name="Group 8631">
                <g id="Group_8630" data-name="Group 8630">
                  <path id="Path_3813" data-name="Path 3813" d="M103.435,373.729a12.849,12.849,0,0,1-.529,2.083c-.422,1.422-.916,3.09-1.462,4.934L100,385.681a13.568,13.568,0,0,1-.638,2.034,11.06,11.06,0,0,1,.388-2.134c.3-1.3.775-3.066,1.35-5s1.136-3.655,1.566-4.892A10.9,10.9,0,0,1,103.435,373.729Z" transform="translate(-99.348 -373.728)" fill="#263238"/>
                </g>
              </g>
            </g>
          </g>
        </g>
        <g id="Group_8642" data-name="Group 8642" transform="translate(20.167 103.172)">
          <g id="Group_8637" data-name="Group 8637" transform="translate(0.05)">
            <g id="Group_8636" data-name="Group 8636">
              <g id="Group_8635" data-name="Group 8635">
                <path id="Path_3814" data-name="Path 3814" d="M108.747,428.114S108,415.822,114.433,410.6c.226-.184.526.02.513.354C114.869,412.929,114.137,418.793,108.747,428.114Z" transform="translate(-108.72 -410.534)" fill="#e8505b"/>
              </g>
            </g>
          </g>
          <g id="Group_8641" data-name="Group 8641" transform="translate(0 3.725)">
            <g id="Group_8640" data-name="Group 8640">
              <g id="Group_8639" data-name="Group 8639">
                <g id="Group_8638" data-name="Group 8638">
                  <path id="Path_3815" data-name="Path 3815" d="M113.123,415.6a12.716,12.716,0,0,1-.59,2.058c-.462,1.4-1,3.048-1.6,4.865L109.34,427.4a13.328,13.328,0,0,1-.7,2,10.986,10.986,0,0,1,.45-2.115c.34-1.282.862-3.03,1.494-4.932s1.24-3.6,1.706-4.82A10.683,10.683,0,0,1,113.123,415.6Z" transform="translate(-108.636 -415.604)" fill="#263238"/>
                </g>
              </g>
            </g>
          </g>
        </g>
        <g id="Group_8650" data-name="Group 8650" transform="translate(0 6.021)">
          <g id="Group_8645" data-name="Group 8645">
            <g id="Group_8644" data-name="Group 8644">
              <g id="Group_8643" data-name="Group 8643">
                <path id="Path_3816" data-name="Path 3816" d="M83.55,293.973s-8.8-5.706-8.977-15.243c-.006-.335.291-.543.513-.352C76.395,279.5,80.02,283.37,83.55,293.973Z" transform="translate(-74.573 -278.306)" fill="#e8505b"/>
              </g>
            </g>
          </g>
          <g id="Group_8649" data-name="Group 8649" transform="translate(1.824 3.7)">
            <g id="Group_8648" data-name="Group 8648">
              <g id="Group_8647" data-name="Group 8647">
                <g id="Group_8646" data-name="Group 8646">
                  <path id="Path_3817" data-name="Path 3817" d="M77.658,283.342a10.665,10.665,0,0,1,1.1,1.708l2.482,4.259,2.491,4.248a12.37,12.37,0,0,1,1,1.792,8.526,8.526,0,0,1-1.21-1.591c-.7-1.036-1.617-2.51-2.585-4.18s-1.81-3.21-2.4-4.344A10.7,10.7,0,0,1,77.658,283.342Z" transform="translate(-77.654 -283.341)" fill="#263238"/>
                </g>
              </g>
            </g>
          </g>
        </g>
        <g id="Group_8658" data-name="Group 8658" transform="translate(8.723 31.965)">
          <g id="Group_8653" data-name="Group 8653">
            <g id="Group_8652" data-name="Group 8652">
              <g id="Group_8651" data-name="Group 8651">
                <path id="Path_3818" data-name="Path 3818" d="M99.014,328.6s-9.067-5.032-9.706-14.538c-.022-.334.264-.564.495-.39C91.164,314.7,94.972,318.286,99.014,328.6Z" transform="translate(-89.307 -313.617)" fill="#e8505b"/>
              </g>
            </g>
          </g>
          <g id="Group_8657" data-name="Group 8657" transform="translate(1.983 3.58)">
            <g id="Group_8656" data-name="Group 8656">
              <g id="Group_8655" data-name="Group 8655">
                <g id="Group_8654" data-name="Group 8654">
                  <path id="Path_3819" data-name="Path 3819" d="M92.659,318.491a10.3,10.3,0,0,1,1.179,1.623l2.686,4.064,2.694,4.053a11.841,11.841,0,0,1,1.089,1.713,8.2,8.2,0,0,1-1.285-1.5c-.747-.981-1.738-2.383-2.786-3.976s-1.963-3.068-2.605-4.156A10.42,10.42,0,0,1,92.659,318.491Z" transform="translate(-92.656 -318.49)" fill="#263238"/>
                </g>
              </g>
            </g>
          </g>
        </g>
        <g id="Group_8666" data-name="Group 8666" transform="translate(9.129 56.446)">
          <g id="Group_8661" data-name="Group 8661">
            <g id="Group_8660" data-name="Group 8660">
              <g id="Group_8659" data-name="Group 8659">
                <path id="Path_3820" data-name="Path 3820" d="M94.076,365.625s-6.225-9.6-3.305-18.428a.3.3,0,0,1,.584-.068C92.191,348.808,94.265,354.154,94.076,365.625Z" transform="translate(-89.992 -346.938)" fill="#e8505b"/>
              </g>
            </g>
          </g>
          <g id="Group_8665" data-name="Group 8665" transform="translate(1.381 4.169)">
            <g id="Group_8664" data-name="Group 8664">
              <g id="Group_8663" data-name="Group 8663">
                <g id="Group_8662" data-name="Group 8662">
                  <path id="Path_3821" data-name="Path 3821" d="M92.34,352.612a12.9,12.9,0,0,1,.454,2.111c.259,1.48.564,3.217.9,5.136s.649,3.652.911,5.131a14.419,14.419,0,0,1,.34,2.141,10.556,10.556,0,0,1-.594-2.059c-.3-1.3-.672-3.1-1.02-5.114s-.622-3.841-.795-5.172A12.128,12.128,0,0,1,92.34,352.612Z" transform="translate(-92.325 -352.612)" fill="#263238"/>
                </g>
              </g>
            </g>
          </g>
        </g>
        <g id="Group_8674" data-name="Group 8674" transform="translate(9.871 93.115)">
          <g id="Group_8669" data-name="Group 8669">
            <g id="Group_8668" data-name="Group 8668">
              <g id="Group_8667" data-name="Group 8667">
                <path id="Path_3822" data-name="Path 3822" d="M100.754,412.027s-9-5.22-9.508-14.738c-.018-.334.272-.558.5-.38C93.094,397.959,96.853,401.626,100.754,412.027Z" transform="translate(-91.246 -396.846)" fill="#e8505b"/>
              </g>
            </g>
          </g>
          <g id="Group_8673" data-name="Group 8673" transform="translate(1.94 3.614)">
            <g id="Group_8672" data-name="Group 8672">
              <g id="Group_8671" data-name="Group 8671">
                <g id="Group_8670" data-name="Group 8670">
                  <path id="Path_3823" data-name="Path 3823" d="M94.526,401.766a10.468,10.468,0,0,1,1.156,1.647l2.63,4.12c.986,1.536,1.879,2.924,2.639,4.108a12.026,12.026,0,0,1,1.065,1.736,8.294,8.294,0,0,1-1.265-1.524c-.734-1-1.7-2.419-2.731-4.034s-1.922-3.109-2.548-4.209A10.421,10.421,0,0,1,94.526,401.766Z" transform="translate(-94.523 -401.765)" fill="#263238"/>
                </g>
              </g>
            </g>
          </g>
        </g>
        <g id="Group_8723" data-name="Group 8723" transform="translate(17.177 57.032)">
          <g id="Group_8678" data-name="Group 8678" transform="translate(2.944 2.803)">
            <g id="Group_8677" data-name="Group 8677">
              <g id="Group_8676" data-name="Group 8676">
                <g id="Group_8675" data-name="Group 8675">
                  <path id="Path_3824" data-name="Path 3824" d="M125.739,351.55a1.163,1.163,0,0,1,.011.272c0,.215-.009.473-.016.788-.026.741-.062,1.741-.107,2.989-.116,2.627-.278,6.291-.471,10.673v.01l0,.015a47.155,47.155,0,0,1-4.931,14.2c-1.8,3.536-3.694,6.751-5.324,9.74a73.9,73.9,0,0,0-3.992,8.189,40.206,40.206,0,0,0-1.867,6.009c-.159.737-.277,1.311-.346,1.7a3.749,3.749,0,0,1-.131.594,3.742,3.742,0,0,1,.058-.612c.045-.4.141-.982.279-1.73a37.048,37.048,0,0,1,1.771-6.106A70.32,70.32,0,0,1,114.614,390c1.62-3.011,3.5-6.23,5.294-9.748a47.76,47.76,0,0,0,4.933-14.033l0,.025c.248-4.378.455-8.038.6-10.663.081-1.245.146-2.242.195-2.982.025-.313.046-.571.063-.784A1.144,1.144,0,0,1,125.739,351.55Z" transform="translate(-108.558 -351.55)" fill="#263238"/>
                </g>
              </g>
            </g>
          </g>
          <g id="Group_8689" data-name="Group 8689" transform="translate(12.772 11.838)">
            <g id="Group_8681" data-name="Group 8681">
              <g id="Group_8680" data-name="Group 8680">
                <g id="Group_8679" data-name="Group 8679">
                  <path id="Path_3825" data-name="Path 3825" d="M127.153,382.845s3.81-11.382-.983-18.84c-.168-.262-.5-.184-.576.138C125.17,366.046,124.385,371.9,127.153,382.845Z" transform="translate(-125.158 -363.848)" fill="#e8505b"/>
                </g>
              </g>
            </g>
            <g id="Group_8685" data-name="Group 8685" transform="translate(1.274 4.126)">
              <g id="Group_8684" data-name="Group 8684">
                <g id="Group_8683" data-name="Group 8683">
                  <g id="Group_8682" data-name="Group 8682">
                    <path id="Path_3826" data-name="Path 3826" d="M127.337,369.464a11.917,11.917,0,0,1,.3,2.153c.135,1.337.286,3.189.4,5.241s.175,3.915.175,5.264a11.276,11.276,0,0,1-.107,2.184,14.594,14.594,0,0,1-.156-2.173c-.081-1.511-.176-3.283-.282-5.242s-.21-3.732-.295-5.243A13.4,13.4,0,0,1,127.337,369.464Z" transform="translate(-127.31 -369.464)" fill="#263238"/>
                  </g>
                </g>
              </g>
            </g>
            <g id="Group_8688" data-name="Group 8688" opacity="0.3">
              <g id="Group_8687" data-name="Group 8687">
                <g id="Group_8686" data-name="Group 8686">
                  <path id="Path_3827" data-name="Path 3827" d="M127.153,382.845s3.81-11.382-.983-18.84c-.168-.262-.5-.184-.576.138C125.17,366.046,124.385,371.9,127.153,382.845Z" transform="translate(-125.158 -363.848)"/>
                </g>
              </g>
            </g>
          </g>
          <g id="Group_8700" data-name="Group 8700" transform="translate(0 39.454)">
            <g id="Group_8692" data-name="Group 8692">
              <g id="Group_8691" data-name="Group 8691">
                <g id="Group_8690" data-name="Group 8690">
                  <path id="Path_3828" data-name="Path 3828" d="M106.55,420.245s3.054-11.728-2.211-18.679c-.185-.244-.514-.133-.565.2C103.476,403.7,103.076,409.614,106.55,420.245Z" transform="translate(-103.586 -401.434)" fill="#e8505b"/>
                </g>
              </g>
            </g>
            <g id="Group_8696" data-name="Group 8696" transform="translate(1.286 4.059)">
              <g id="Group_8695" data-name="Group 8695">
                <g id="Group_8694" data-name="Group 8694">
                  <g id="Group_8693" data-name="Group 8693">
                    <path id="Path_3829" data-name="Path 3829" d="M105.773,406.959a11.6,11.6,0,0,1,.442,2.116c.221,1.319.493,3.15.745,5.183s.43,3.884.518,5.23a11.277,11.277,0,0,1,.036,2.187,14.383,14.383,0,0,1-.3-2.151c-.18-1.5-.391-3.254-.624-5.2s-.454-3.7-.636-5.2A13.4,13.4,0,0,1,105.773,406.959Z" transform="translate(-105.757 -406.959)" fill="#263238"/>
                  </g>
                </g>
              </g>
            </g>
            <g id="Group_8699" data-name="Group 8699" opacity="0.3">
              <g id="Group_8698" data-name="Group 8698">
                <g id="Group_8697" data-name="Group 8697">
                  <path id="Path_3830" data-name="Path 3830" d="M106.55,420.245s3.054-11.728-2.211-18.679c-.185-.244-.514-.133-.565.2C103.476,403.7,103.076,409.614,106.55,420.245Z" transform="translate(-103.586 -401.434)"/>
                </g>
              </g>
            </g>
          </g>
          <g id="Group_8711" data-name="Group 8711" transform="translate(19.62)">
            <g id="Group_8703" data-name="Group 8703">
              <g id="Group_8702" data-name="Group 8702">
                <g id="Group_8701" data-name="Group 8701">
                  <path id="Path_3831" data-name="Path 3831" d="M136.724,364.66s8.137-7.069,7.316-16.553c-.029-.333-.345-.492-.546-.267C142.314,349.163,139.121,353.58,136.724,364.66Z" transform="translate(-136.724 -347.735)" fill="#e8505b"/>
                </g>
              </g>
            </g>
            <g id="Group_8706" data-name="Group 8706" opacity="0.3">
              <g id="Group_8705" data-name="Group 8705">
                <g id="Group_8704" data-name="Group 8704">
                  <path id="Path_3832" data-name="Path 3832" d="M136.724,364.66s8.137-7.069,7.316-16.553c-.029-.333-.345-.492-.546-.267C142.314,349.163,139.121,353.58,136.724,364.66Z" transform="translate(-136.724 -347.735)"/>
                </g>
              </g>
            </g>
            <g id="Group_8710" data-name="Group 8710" transform="translate(0.076 3.912)">
              <g id="Group_8709" data-name="Group 8709">
                <g id="Group_8708" data-name="Group 8708">
                  <g id="Group_8707" data-name="Group 8707">
                    <path id="Path_3833" data-name="Path 3833" d="M142.62,353.061a11.326,11.326,0,0,1-.676,2.018c-.465,1.219-1.138,2.882-1.925,4.692s-1.545,3.42-2.128,4.559a9.166,9.166,0,0,1-1.034,1.771,13.209,13.209,0,0,1,.808-1.938l2.028-4.611,2.018-4.621A11.5,11.5,0,0,1,142.62,353.061Z" transform="translate(-136.852 -353.06)" fill="#263238"/>
                  </g>
                </g>
              </g>
            </g>
          </g>
          <g id="Group_8722" data-name="Group 8722" transform="translate(6.246 35.221)">
            <g id="Group_8714" data-name="Group 8714">
              <g id="Group_8713" data-name="Group 8713">
                <g id="Group_8712" data-name="Group 8712">
                  <path id="Path_3834" data-name="Path 3834" d="M114.135,407.089s9.813-1.9,12.443-10.862c.092-.314-.136-.63-.4-.538C124.652,396.231,120.218,398.452,114.135,407.089Z" transform="translate(-114.135 -395.673)" fill="#e8505b"/>
                </g>
              </g>
            </g>
            <g id="Group_8717" data-name="Group 8717" opacity="0.3">
              <g id="Group_8716" data-name="Group 8716">
                <g id="Group_8715" data-name="Group 8715">
                  <path id="Path_3835" data-name="Path 3835" d="M114.135,407.089s9.813-1.9,12.443-10.862c.092-.314-.136-.63-.4-.538C124.652,396.231,120.218,398.452,114.135,407.089Z" transform="translate(-114.135 -395.673)"/>
                </g>
              </g>
            </g>
            <g id="Group_8721" data-name="Group 8721" transform="translate(0.06 2.925)">
              <g id="Group_8720" data-name="Group 8720">
                <g id="Group_8719" data-name="Group 8719">
                  <g id="Group_8718" data-name="Group 8718">
                    <path id="Path_3836" data-name="Path 3836" d="M124.041,399.658a8.867,8.867,0,0,1-1.324,1.443c-.849.84-2.044,1.965-3.393,3.16s-2.6,2.226-3.529,2.929a6.935,6.935,0,0,1-1.557,1.025,10.068,10.068,0,0,1,1.413-1.3l3.458-3.031,3.452-3.046A8.724,8.724,0,0,1,124.041,399.658Z" transform="translate(-114.236 -399.654)" fill="#263238"/>
                  </g>
                </g>
              </g>
            </g>
          </g>
        </g>
      </g>
      <g id="Group_8727" data-name="Group 8727" transform="translate(11.198 126.083)">
        <g id="Group_8726" data-name="Group 8726">
          <g id="Group_8725" data-name="Group 8725">
            <path id="Path_3837" data-name="Path 3837" d="M96.349,441.716l-2.863,23.91h17.84l-2.313-23.91Z" transform="translate(-93.487 -441.716)" fill="#455a64"/>
          </g>
        </g>
      </g>
      <g id="Group_8731" data-name="Group 8731" transform="translate(13.05 133.261)">
        <g id="Group_8730" data-name="Group 8730">
          <g id="Group_8729" data-name="Group 8729">
            <g id="Group_8728" data-name="Group 8728">
              <path id="Path_3838" data-name="Path 3838" d="M111,451.717a56.177,56.177,0,0,1-7.193.231,56.181,56.181,0,0,1-7.195-.231,56.451,56.451,0,0,1,7.195-.23A56.448,56.448,0,0,1,111,451.717Z" transform="translate(-96.615 -451.487)" fill="#263238"/>
            </g>
          </g>
        </g>
      </g>
      <g id="Group_8735" data-name="Group 8735" transform="translate(12.932 135.164)">
        <g id="Group_8734" data-name="Group 8734">
          <g id="Group_8733" data-name="Group 8733">
            <g id="Group_8732" data-name="Group 8732">
              <path id="Path_3839" data-name="Path 3839" d="M111.276,454.307a60.11,60.11,0,0,1-7.43.231,60.108,60.108,0,0,1-7.43-.231,60.078,60.078,0,0,1,7.43-.231A60.079,60.079,0,0,1,111.276,454.307Z" transform="translate(-96.416 -454.076)" fill="#263238"/>
            </g>
          </g>
        </g>
      </g>
    </g>
    <g id="Group_8752" data-name="Group 8752" transform="translate(333.571 117.989)">
      <g id="Group_8738" data-name="Group 8738" transform="translate(7.895)">
        <g id="Group_8737" data-name="Group 8737">
          <path id="Path_3840" data-name="Path 3840" d="M655.3,430.7a5.248,5.248,0,0,0-2.977,2.975,12.763,12.763,0,0,0-.986,4.677,22.465,22.465,0,0,0,2.017,9.335c2.4-1.819,3.428-5.667,3.851-7.659.667-3.149.33-9.343-1.9-9.327" transform="translate(-651.322 -430.7)" fill="#e8505b"/>
        </g>
      </g>
      <g id="Group_8740" data-name="Group 8740" transform="translate(0 13.993)">
        <g id="Group_8739" data-name="Group 8739">
          <path id="Path_3841" data-name="Path 3841" d="M644.781,457.307a6.185,6.185,0,0,0-.658-5.124,5.267,5.267,0,0,0-3.8-2.413,2.012,2.012,0,0,0-1.9.608,2.629,2.629,0,0,0-.332,2.2,4.583,4.583,0,0,0,1.095,1.89c1.617,1.8,3.447,3.164,5.6,2.838" transform="translate(-637.987 -449.746)" fill="#e8505b"/>
        </g>
      </g>
      <g id="Group_8743" data-name="Group 8743" transform="translate(3.237 17.32)">
        <g id="Group_8742" data-name="Group 8742">
          <g id="Group_8741" data-name="Group 8741">
            <path id="Path_3842" data-name="Path 3842" d="M648.389,468.523a4.517,4.517,0,0,0,.012-.648c0-.458-.01-1.051-.017-1.764a22.234,22.234,0,0,0-.668-5.768,11.531,11.531,0,0,0-2.585-4.84,6.121,6.121,0,0,0-1.191-.981,3.3,3.3,0,0,0-.355-.2c-.082-.04-.127-.059-.129-.051a9.645,9.645,0,0,1,1.59,1.35,11.983,11.983,0,0,1,2.5,4.794,23.925,23.925,0,0,1,.712,5.7c.028.744.05,1.347.075,1.763A4.1,4.1,0,0,0,648.389,468.523Z" transform="translate(-643.455 -454.273)" fill="#263238"/>
          </g>
        </g>
      </g>
      <g id="Group_8746" data-name="Group 8746" transform="translate(8.119 4.745)">
        <g id="Group_8745" data-name="Group 8745">
          <g id="Group_8744" data-name="Group 8744">
            <path id="Path_3843" data-name="Path 3843" d="M655.374,437.158a1.554,1.554,0,0,0-.064.27l-.147.786c-.125.683-.3,1.675-.5,2.9-.4,2.455-.927,5.856-1.434,9.627s-.9,7.2-1.162,9.685c-.13,1.242-.228,2.249-.288,2.946l-.066.8a1.664,1.664,0,0,0-.011.281,1.554,1.554,0,0,0,.047-.276c.026-.206.059-.47.1-.8.085-.721.2-1.716.346-2.935.292-2.478.709-5.9,1.215-9.67s1.008-7.172,1.381-9.634c.182-1.21.332-2.2.44-2.916l.114-.794A1.683,1.683,0,0,0,655.374,437.158Z" transform="translate(-651.7 -437.158)" fill="#263238"/>
          </g>
        </g>
      </g>
      <g id="Group_8748" data-name="Group 8748" transform="translate(10.152 16.398)">
        <g id="Group_8747" data-name="Group 8747">
          <path id="Path_3844" data-name="Path 3844" d="M655.134,460.819c.99-3.626,3.48-6.565,6.447-7.613a1.755,1.755,0,0,1,2.191.423,3.005,3.005,0,0,1-.208,2.737c-1.686,3.484-5.195,5.45-8.416,4.717" transform="translate(-655.134 -453.018)" fill="#e8505b"/>
        </g>
      </g>
      <g id="Group_8751" data-name="Group 8751" transform="translate(8.275 19.433)">
        <g id="Group_8750" data-name="Group 8750">
          <g id="Group_8749" data-name="Group 8749">
            <path id="Path_3845" data-name="Path 3845" d="M659.546,457.151a2.126,2.126,0,0,0-.477.146,4.036,4.036,0,0,0-.547.225,7.237,7.237,0,0,0-.707.361,8.2,8.2,0,0,0-.824.527,9.643,9.643,0,0,0-.9.711,12.084,12.084,0,0,0-1.8,2.04,13.83,13.83,0,0,0-1.349,2.522c-.16.422-.314.821-.42,1.215-.126.384-.2.758-.281,1.1s-.117.654-.163.926a6.513,6.513,0,0,0-.08.708,3.855,3.855,0,0,0-.029.608c.041.007.088-.863.4-2.2.083-.331.168-.7.3-1.073.111-.385.268-.775.429-1.187a14.279,14.279,0,0,1,1.338-2.469,12.591,12.591,0,0,1,1.761-2.019,10.165,10.165,0,0,1,.875-.718,9.065,9.065,0,0,1,.8-.544C658.879,457.421,659.558,457.2,659.546,457.151Z" transform="translate(-651.963 -457.149)" fill="#263238"/>
          </g>
        </g>
      </g>
    </g>
  </g>
</svg>
